<svg xmlns="http://www.w3.org/2000/svg" xmlns:xlink="http://www.w3.org/1999/xlink" width="1920" zoomAndPan="magnify" viewBox="0 0 1440 809.999993" height="1080" preserveAspectRatio="xMidYMid meet" version="1.0"><defs><g/><clipPath id="27d2532387"><path d="M 486.019531 382 L 870 382 L 870 696.75 L 486.019531 696.75 Z M 486.019531 382 " clip-rule="nonzero"/></clipPath><clipPath id="cb3970eb43"><rect x="0" width="786" y="0" height="197"/></clipPath></defs><rect x="-144" width="1728" fill="#ffffff" y="-80.999999" height="971.999992" fill-opacity="1"/><rect x="-144" width="1728" fill="#ff5757" y="-80.999999" height="971.999992" fill-opacity="1"/><g clip-path="url(#27d2532387)"><path fill="#ffffff" d="M 840.871094 411.160156 C 802.425781 372.710938 739.867188 372.710938 701.410156 411.160156 L 677.824219 434.746094 L 654.214844 411.152344 C 635.660156 392.597656 610.894531 382.378906 584.484375 382.378906 C 558.070312 382.378906 533.3125 392.597656 514.773438 411.152344 C 496.222656 429.703125 486 454.46875 486 480.867188 C 486 507.265625 496.222656 532.03125 514.773438 550.582031 L 538.503906 574.3125 C 538.648438 574.472656 538.796875 574.628906 538.953125 574.769531 C 538.96875 574.785156 538.984375 574.792969 539 574.808594 L 636.148438 671.96875 C 636.15625 671.976562 636.167969 671.992188 636.175781 672 L 649.011719 684.835938 C 656.957031 692.777344 667.386719 696.742188 677.816406 696.742188 C 688.246094 696.742188 698.675781 692.769531 706.621094 684.835938 L 719.46875 671.984375 L 840.878906 550.574219 C 879.289062 512.160156 879.289062 449.605469 840.871094 411.160156 Z M 626.0625 510.914062 C 615.804688 510.914062 607.457031 502.566406 607.457031 492.308594 C 607.457031 482.050781 615.804688 473.703125 626.0625 473.703125 C 636.320312 473.703125 644.667969 482.050781 644.667969 492.308594 C 644.667969 502.566406 636.320312 510.914062 626.0625 510.914062 Z M 617.160156 522.894531 L 634.957031 522.894531 C 647.371094 522.894531 657.472656 531.296875 657.472656 541.628906 L 657.472656 557.453125 C 651.195312 563.058594 647.238281 571.203125 647.238281 580.261719 C 647.238281 588.378906 650.421875 595.765625 655.597656 601.242188 C 643.160156 605.890625 634.410156 616.835938 634.410156 629.582031 L 634.410156 653.304688 L 617.714844 636.609375 L 617.714844 585.613281 C 617.714844 572.875 608.960938 561.933594 596.539062 557.28125 C 601.722656 551.796875 604.910156 544.417969 604.910156 536.292969 C 604.910156 533.003906 604.382812 529.835938 603.417969 526.867188 C 607.34375 524.3125 612.167969 522.894531 617.160156 522.894531 Z M 729.5625 510.914062 C 719.304688 510.914062 710.957031 502.566406 710.957031 492.308594 C 710.957031 482.050781 719.304688 473.703125 729.5625 473.703125 C 739.820312 473.703125 748.167969 482.050781 748.167969 492.308594 C 748.167969 502.566406 739.820312 510.914062 729.5625 510.914062 Z M 720.667969 522.894531 L 738.488281 522.894531 C 743.484375 522.894531 748.320312 524.320312 752.238281 526.875 C 751.269531 529.84375 750.746094 533.011719 750.746094 536.300781 C 750.746094 544.417969 753.929688 551.804688 759.109375 557.28125 C 746.671875 561.925781 737.917969 572.875 737.917969 585.621094 L 737.917969 636.625 L 721.222656 653.320312 L 721.222656 629.589844 C 721.222656 616.851562 712.472656 605.910156 700.046875 601.257812 C 705.234375 595.773438 708.417969 588.394531 708.417969 580.269531 C 708.417969 571.203125 704.445312 563.050781 698.160156 557.4375 L 698.160156 541.628906 C 698.152344 531.296875 708.253906 522.894531 720.667969 522.894531 Z M 772.410156 566.878906 L 790.226562 566.878906 C 795.21875 566.878906 799.945312 568.242188 803.8125 570.710938 L 749.890625 624.628906 L 749.890625 585.605469 C 749.890625 575.289062 759.992188 566.878906 772.410156 566.878906 Z M 781.324219 554.898438 C 771.066406 554.898438 762.71875 546.550781 762.71875 536.292969 C 762.71875 526.035156 771.066406 517.6875 781.324219 517.6875 C 791.582031 517.6875 799.929688 526.035156 799.929688 536.292969 C 799.929688 546.550781 791.589844 554.898438 781.324219 554.898438 Z M 696.429688 580.261719 C 696.429688 590.519531 688.082031 598.867188 677.824219 598.867188 C 667.566406 598.867188 659.21875 590.519531 659.21875 580.261719 C 659.21875 570.003906 667.566406 561.65625 677.824219 561.65625 C 688.082031 561.65625 696.429688 570.003906 696.429688 580.261719 Z M 592.925781 536.292969 C 592.925781 546.550781 584.578125 554.898438 574.320312 554.898438 C 564.050781 554.898438 555.695312 546.550781 555.695312 536.292969 C 555.695312 526.035156 564.050781 517.6875 574.320312 517.6875 C 584.578125 517.6875 592.925781 526.035156 592.925781 536.292969 Z M 565.398438 566.878906 L 583.214844 566.878906 C 595.632812 566.878906 605.734375 575.28125 605.734375 585.613281 L 605.734375 624.628906 L 551.828125 570.714844 C 555.703125 568.242188 560.421875 566.878906 565.398438 566.878906 Z M 698.144531 676.382812 C 686.933594 687.59375 668.695312 687.59375 657.488281 676.382812 L 646.390625 665.285156 L 646.390625 629.582031 C 646.390625 619.25 656.492188 610.847656 668.90625 610.847656 L 686.726562 610.847656 C 699.140625 610.847656 709.242188 619.25 709.242188 629.582031 L 709.242188 665.292969 Z M 812.414062 562.113281 C 809.730469 560.097656 806.75 558.472656 803.550781 557.28125 C 808.726562 551.796875 811.910156 544.417969 811.910156 536.292969 C 811.910156 519.425781 798.191406 505.707031 781.324219 505.707031 C 772.042969 505.707031 763.722656 509.867188 758.113281 516.414062 C 756.117188 515.1875 753.992188 514.144531 751.765625 513.3125 C 756.957031 507.828125 760.148438 500.433594 760.148438 492.300781 C 760.148438 475.433594 746.429688 461.714844 729.5625 461.714844 C 712.695312 461.714844 698.976562 475.433594 698.976562 492.300781 C 698.976562 500.425781 702.160156 507.8125 707.347656 513.289062 C 694.921875 517.933594 686.171875 528.882812 686.171875 541.621094 L 686.171875 550.835938 C 683.519531 550.082031 680.714844 549.667969 677.824219 549.667969 C 674.925781 549.667969 672.113281 550.082031 669.453125 550.84375 L 669.453125 541.621094 C 669.453125 528.890625 660.703125 517.941406 648.277344 513.289062 C 653.464844 507.804688 656.648438 500.425781 656.648438 492.300781 C 656.648438 475.433594 642.929688 461.714844 626.0625 461.714844 C 609.195312 461.714844 595.476562 475.433594 595.476562 492.300781 C 595.476562 500.433594 598.675781 507.835938 603.867188 513.320312 C 601.648438 514.152344 599.519531 515.1875 597.535156 516.414062 C 591.921875 509.867188 583.597656 505.707031 574.320312 505.707031 C 557.449219 505.707031 543.714844 519.425781 543.714844 536.292969 C 543.714844 544.417969 546.90625 551.796875 552.089844 557.28125 C 548.898438 558.472656 545.914062 560.097656 543.234375 562.113281 L 523.25 542.128906 C 506.960938 525.839844 497.984375 504.089844 497.984375 480.882812 C 497.984375 457.675781 506.953125 435.925781 523.25 419.632812 C 539.53125 403.34375 561.277344 394.375 584.488281 394.375 C 607.703125 394.375 629.457031 403.34375 645.746094 419.632812 L 673.589844 447.457031 C 675.929688 449.792969 679.71875 449.792969 682.058594 447.457031 L 709.878906 419.632812 C 743.65625 385.855469 798.621094 385.855469 832.398438 419.632812 C 866.15625 453.40625 866.15625 508.359375 832.398438 542.128906 Z M 812.414062 562.113281 " fill-opacity="1" fill-rule="nonzero"/></g><g transform="matrix(1, 0, 0, 1, 327, 162)"><g clip-path="url(#cb3970eb43)"><g fill="#ffffff" fill-opacity="1"><g transform="translate(0.936611, 154.015985)"><g><path d="M 52.6875 -102.015625 C 59.988281 -102.015625 66.234375 -100.675781 71.421875 -98 C 76.609375 -95.320312 80.523438 -91.578125 83.171875 -86.765625 C 85.828125 -81.953125 87.15625 -76.359375 87.15625 -69.984375 C 87.15625 -63.609375 85.828125 -58.023438 83.171875 -53.234375 C 80.523438 -48.441406 76.609375 -44.707031 71.421875 -42.03125 C 66.234375 -39.363281 59.988281 -38.03125 52.6875 -38.03125 L 33.421875 -38.03125 L 33.421875 0 L 13.265625 0 L 13.265625 -102.015625 Z M 50.03125 -54.015625 C 61.238281 -54.015625 66.84375 -59.335938 66.84375 -69.984375 C 66.84375 -80.679688 61.238281 -86.03125 50.03125 -86.03125 L 33.421875 -86.03125 L 33.421875 -54.015625 Z M 50.03125 -54.015625 "/></g></g></g><g fill="#ffffff" fill-opacity="1"><g transform="translate(92.136955, 154.015985)"><g><path d="M 35.234375 1.46875 C 26.585938 1.46875 20.203125 -0.890625 16.078125 -5.609375 C 11.960938 -10.335938 9.90625 -17.117188 9.90625 -25.953125 L 9.90625 -76.96875 L 29.234375 -76.96875 L 29.234375 -28.40625 C 29.234375 -23.707031 30.242188 -20.273438 32.265625 -18.109375 C 34.296875 -15.941406 37.425781 -14.859375 41.65625 -14.859375 C 47.007812 -14.859375 51.171875 -16.613281 54.140625 -20.125 C 57.117188 -23.644531 58.609375 -29.171875 58.609375 -36.703125 L 58.609375 -76.96875 L 77.9375 -76.96875 L 77.9375 0 L 59.375 0 L 59.375 -11.296875 L 57.921875 -11.65625 C 55.453125 -7.238281 52.4375 -3.945312 48.875 -1.78125 C 45.320312 0.382812 40.773438 1.46875 35.234375 1.46875 Z M 35.234375 1.46875 "/></g></g></g><g fill="#ffffff" fill-opacity="1"><g transform="translate(181.174254, 154.015985)"><g><path d="M 53.796875 1.46875 C 43.984375 1.46875 36.679688 -2.207031 31.890625 -9.5625 L 30.421875 -9.28125 L 30.421875 0 L 11.09375 0 L 11.09375 -107.875 L 30.421875 -107.875 L 30.421875 -67.890625 L 31.890625 -67.609375 C 34.535156 -71.285156 37.660156 -74.007812 41.265625 -75.78125 C 44.878906 -77.550781 49.195312 -78.4375 54.21875 -78.4375 C 60.445312 -78.4375 65.890625 -76.96875 70.546875 -74.03125 C 75.203125 -71.101562 78.832031 -66.648438 81.4375 -60.671875 C 84.039062 -54.691406 85.34375 -47.285156 85.34375 -38.453125 C 85.34375 -29.703125 83.992188 -22.335938 81.296875 -16.359375 C 78.597656 -10.378906 74.875 -5.910156 70.125 -2.953125 C 65.382812 -0.00390625 59.941406 1.46875 53.796875 1.46875 Z M 47.9375 -14.9375 C 53.613281 -14.9375 57.9375 -16.832031 60.90625 -20.625 C 63.882812 -24.414062 65.375 -30.359375 65.375 -38.453125 C 65.375 -46.585938 63.882812 -52.550781 60.90625 -56.34375 C 57.9375 -60.132812 53.613281 -62.03125 47.9375 -62.03125 C 42.5 -62.03125 38.1875 -60.078125 35 -56.171875 C 31.8125 -52.265625 30.21875 -46.359375 30.21875 -38.453125 C 30.21875 -30.535156 31.8125 -24.632812 35 -20.75 C 38.1875 -16.875 42.5 -14.9375 47.9375 -14.9375 Z M 47.9375 -14.9375 "/></g></g></g><g fill="#ffffff" fill-opacity="1"><g transform="translate(273.351584, 154.015985)"><g><path d="M 31.953125 1.46875 C 25.023438 1.46875 19.734375 -0.398438 16.078125 -4.140625 C 12.429688 -7.890625 10.609375 -13.582031 10.609375 -21.21875 L 10.609375 -107.875 L 29.9375 -107.875 L 29.9375 -21.984375 C 29.9375 -17.285156 31.890625 -14.9375 35.796875 -14.9375 C 36.910156 -14.9375 38.097656 -15.117188 39.359375 -15.484375 L 40.328125 -15.21875 L 42.078125 -0.34375 C 41.003906 0.207031 39.582031 0.644531 37.8125 0.96875 C 36.050781 1.300781 34.097656 1.46875 31.953125 1.46875 Z M 31.953125 1.46875 "/></g></g></g><g fill="#ffffff" fill-opacity="1"><g transform="translate(317.591121, 154.015985)"><g><path d="M 20.71875 -86.171875 C 17.226562 -86.171875 14.390625 -87.226562 12.203125 -89.34375 C 10.023438 -91.46875 8.9375 -94.203125 8.9375 -97.546875 C 8.9375 -100.847656 10.023438 -103.554688 12.203125 -105.671875 C 14.390625 -107.796875 17.226562 -108.859375 20.71875 -108.859375 C 23.050781 -108.859375 25.125 -108.367188 26.9375 -107.390625 C 28.75 -106.410156 30.15625 -105.070312 31.15625 -103.375 C 32.15625 -101.675781 32.65625 -99.734375 32.65625 -97.546875 C 32.65625 -95.359375 32.15625 -93.40625 31.15625 -91.6875 C 30.15625 -89.96875 28.75 -88.617188 26.9375 -87.640625 C 25.125 -86.660156 23.050781 -86.171875 20.71875 -86.171875 Z M 11.09375 0 L 11.09375 -76.96875 L 30.421875 -76.96875 L 30.421875 0 Z M 11.09375 0 "/></g></g></g><g fill="#ffffff" fill-opacity="1"><g transform="translate(359.039519, 154.015985)"><g><path d="M 44.875 1.46875 C 37.425781 1.46875 30.835938 -0.078125 25.109375 -3.171875 C 19.390625 -6.265625 14.925781 -10.8125 11.71875 -16.8125 C 8.507812 -22.8125 6.90625 -30.023438 6.90625 -38.453125 C 6.90625 -46.910156 8.507812 -54.140625 11.71875 -60.140625 C 14.925781 -66.148438 19.367188 -70.703125 25.046875 -73.796875 C 30.722656 -76.890625 37.210938 -78.4375 44.515625 -78.4375 C 60.753906 -78.4375 71.148438 -72.550781 75.703125 -60.78125 L 62.453125 -51.28125 L 60.984375 -51.28125 C 59.398438 -54.914062 57.34375 -57.613281 54.8125 -59.375 C 52.28125 -61.144531 48.847656 -62.03125 44.515625 -62.03125 C 38.929688 -62.03125 34.582031 -60.097656 31.46875 -56.234375 C 28.351562 -52.378906 26.796875 -46.453125 26.796875 -38.453125 C 26.796875 -30.535156 28.375 -24.632812 31.53125 -20.75 C 34.695312 -16.875 39.144531 -14.9375 44.875 -14.9375 C 49.050781 -14.9375 52.59375 -16.0625 55.5 -18.3125 C 58.414062 -20.570312 60.5 -23.816406 61.75 -28.046875 L 63.21875 -28.1875 L 76.96875 -20.65625 C 75.007812 -14.144531 71.390625 -8.828125 66.109375 -4.703125 C 60.828125 -0.585938 53.75 1.46875 44.875 1.46875 Z M 44.875 1.46875 "/></g></g></g><g fill="#ffffff" fill-opacity="1"><g transform="translate(438.377615, 154.015985)"><g/></g></g><g fill="#ffffff" fill-opacity="1"><g transform="translate(472.080605, 154.015985)"><g><path d="M 13.265625 0 L 13.265625 -102.015625 L 56.796875 -102.015625 C 63.078125 -102.015625 68.390625 -101.023438 72.734375 -99.046875 C 77.085938 -97.066406 80.378906 -94.25 82.609375 -90.59375 C 84.847656 -86.945312 85.96875 -82.632812 85.96875 -77.65625 C 85.96875 -73.144531 84.875 -69.164062 82.6875 -65.71875 C 80.5 -62.28125 77.359375 -59.515625 73.265625 -57.421875 L 73.265625 -55.96875 C 79.679688 -54.289062 84.632812 -51.238281 88.125 -46.8125 C 91.613281 -42.394531 93.359375 -36.976562 93.359375 -30.5625 C 93.359375 -20.789062 90.414062 -13.253906 84.53125 -7.953125 C 78.644531 -2.648438 69.910156 0 58.328125 0 Z M 52.609375 -61.328125 C 62.003906 -61.328125 66.703125 -65.5625 66.703125 -74.03125 C 66.703125 -78.363281 65.539062 -81.585938 63.21875 -83.703125 C 60.894531 -85.816406 57.359375 -86.875 52.609375 -86.875 L 33.421875 -86.875 L 33.421875 -61.328125 Z M 56.3125 -15.984375 C 67.425781 -15.984375 72.984375 -21.03125 72.984375 -31.125 C 72.984375 -41.257812 67.425781 -46.328125 56.3125 -46.328125 L 33.421875 -46.328125 L 33.421875 -15.984375 Z M 56.3125 -15.984375 "/></g></g></g><g fill="#ffffff" fill-opacity="1"><g transform="translate(571.863816, 154.015985)"><g><path d="M 31.953125 1.46875 C 25.023438 1.46875 19.734375 -0.398438 16.078125 -4.140625 C 12.429688 -7.890625 10.609375 -13.582031 10.609375 -21.21875 L 10.609375 -107.875 L 29.9375 -107.875 L 29.9375 -21.984375 C 29.9375 -17.285156 31.890625 -14.9375 35.796875 -14.9375 C 36.910156 -14.9375 38.097656 -15.117188 39.359375 -15.484375 L 40.328125 -15.21875 L 42.078125 -0.34375 C 41.003906 0.207031 39.582031 0.644531 37.8125 0.96875 C 36.050781 1.300781 34.097656 1.46875 31.953125 1.46875 Z M 31.953125 1.46875 "/></g></g></g><g fill="#ffffff" fill-opacity="1"><g transform="translate(616.103294, 154.015985)"><g><path d="M 44.734375 1.46875 C 37.191406 1.46875 30.570312 -0.078125 24.875 -3.171875 C 19.175781 -6.265625 14.753906 -10.800781 11.609375 -16.78125 C 8.472656 -22.757812 6.90625 -29.984375 6.90625 -38.453125 C 6.90625 -46.910156 8.472656 -54.140625 11.609375 -60.140625 C 14.753906 -66.148438 19.175781 -70.703125 24.875 -73.796875 C 30.570312 -76.890625 37.191406 -78.4375 44.734375 -78.4375 C 52.265625 -78.4375 58.878906 -76.890625 64.578125 -73.796875 C 70.273438 -70.703125 74.707031 -66.148438 77.875 -60.140625 C 81.039062 -54.140625 82.625 -46.910156 82.625 -38.453125 C 82.625 -29.984375 81.039062 -22.757812 77.875 -16.78125 C 74.707031 -10.800781 70.273438 -6.265625 64.578125 -3.171875 C 58.878906 -0.078125 52.265625 1.46875 44.734375 1.46875 Z M 44.734375 -14.9375 C 56.679688 -14.9375 62.65625 -22.773438 62.65625 -38.453125 C 62.65625 -46.585938 61.117188 -52.550781 58.046875 -56.34375 C 54.984375 -60.132812 50.546875 -62.03125 44.734375 -62.03125 C 32.773438 -62.03125 26.796875 -54.171875 26.796875 -38.453125 C 26.796875 -22.773438 32.773438 -14.9375 44.734375 -14.9375 Z M 44.734375 -14.9375 "/></g></g></g><g fill="#ffffff" fill-opacity="1"><g transform="translate(705.001037, 154.015985)"><g><path d="M 39.90625 32.65625 C 27.207031 32.65625 17.832031 30.789062 11.78125 27.0625 C 5.738281 23.34375 2.71875 18.160156 2.71875 11.515625 C 2.71875 7.460938 4.007812 4.144531 6.59375 1.5625 C 9.175781 -1.007812 12.882812 -2.738281 17.71875 -3.625 L 17.71875 -5.09375 C 15.113281 -6.675781 13.238281 -8.429688 12.09375 -10.359375 C 10.957031 -12.296875 10.390625 -14.539062 10.390625 -17.09375 C 10.390625 -23.28125 14.414062 -27.445312 22.46875 -29.59375 L 22.46875 -31.046875 C 18.332031 -33.421875 15.21875 -36.363281 13.125 -39.875 C 11.03125 -43.382812 9.984375 -47.628906 9.984375 -52.609375 C 9.984375 -57.722656 11.15625 -62.222656 13.5 -66.109375 C 15.851562 -69.992188 19.296875 -73.019531 23.828125 -75.1875 C 28.359375 -77.351562 33.789062 -78.4375 40.125 -78.4375 C 46.539062 -78.4375 51.65625 -77.316406 55.46875 -75.078125 C 57.84375 -78.523438 59.21875 -82.503906 59.59375 -87.015625 L 61.0625 -87.921875 L 74.9375 -84.5 C 74.519531 -80.820312 73.453125 -77.738281 71.734375 -75.25 C 70.015625 -72.757812 67.335938 -70.539062 63.703125 -68.59375 L 63.703125 -67.0625 C 68.035156 -63.238281 70.203125 -57.910156 70.203125 -51.078125 C 70.203125 -46.328125 69.015625 -42.066406 66.640625 -38.296875 C 64.265625 -34.535156 60.804688 -31.5625 56.265625 -29.375 C 51.734375 -27.1875 46.351562 -26.09375 40.125 -26.09375 L 37.1875 -26.171875 C 35.332031 -26.265625 34.03125 -26.3125 33.28125 -26.3125 C 31.507812 -26.3125 30.125 -25.832031 29.125 -24.875 C 28.125 -23.925781 27.625 -22.707031 27.625 -21.21875 C 27.625 -19.582031 28.273438 -18.3125 29.578125 -17.40625 C 30.890625 -16.5 32.800781 -16 35.3125 -15.90625 L 52.546875 -15.28125 C 69.566406 -14.769531 78.078125 -7.441406 78.078125 6.703125 C 78.078125 11.679688 76.804688 16.109375 74.265625 19.984375 C 71.734375 23.867188 67.628906 26.953125 61.953125 29.234375 C 56.285156 31.515625 48.9375 32.65625 39.90625 32.65625 Z M 40.125 -39.640625 C 43.84375 -39.640625 46.75 -40.726562 48.84375 -42.90625 C 50.9375 -45.09375 51.984375 -48.210938 51.984375 -52.265625 C 51.984375 -56.304688 50.9375 -59.410156 48.84375 -61.578125 C 46.75 -63.742188 43.84375 -64.828125 40.125 -64.828125 C 36.351562 -64.828125 33.441406 -63.742188 31.390625 -61.578125 C 29.347656 -59.410156 28.328125 -56.304688 28.328125 -52.265625 C 28.328125 -48.171875 29.347656 -45.039062 31.390625 -42.875 C 33.441406 -40.71875 36.351562 -39.640625 40.125 -39.640625 Z M 39.90625 18.625 C 46.519531 18.625 51.328125 17.691406 54.328125 15.828125 C 57.328125 13.972656 58.828125 11.554688 58.828125 8.578125 C 58.828125 6.160156 58.054688 4.378906 56.515625 3.234375 C 54.984375 2.097656 52.539062 1.484375 49.1875 1.390625 L 33.984375 0.703125 C 33.472656 0.703125 32.992188 0.675781 32.546875 0.625 C 32.109375 0.582031 31.679688 0.5625 31.265625 0.5625 C 28.003906 0.5625 25.523438 1.257812 23.828125 2.65625 C 22.128906 4.050781 21.28125 5.976562 21.28125 8.4375 C 21.28125 11.695312 22.835938 14.207031 25.953125 15.96875 C 29.066406 17.738281 33.71875 18.625 39.90625 18.625 Z M 39.90625 18.625 "/></g></g></g></g></g></svg>