<?xml version="1.0" encoding="UTF-8"?>
<svg version="1.1" xmlns="http://www.w3.org/2000/svg" width="404" height="316">
<path d="M0 0 C133.32 0 266.64 0 404 0 C404 104.28 404 208.56 404 316 C270.68 316 137.36 316 0 316 C0 211.72 0 107.44 0 0 Z " fill="#F6E72F" transform="translate(0,0)"/>
<path d="M0 0 C7.59 0 15.18 0 23 0 C23.99 3.63 24.98 7.26 26 11 C28.63793494 15.36623715 31.33163413 17.05349205 36 19 C38.76938608 19.3098809 41.24245208 19.46600848 44 19.4375 C44.68578125 19.45748047 45.3715625 19.47746094 46.078125 19.49804688 C51.20000408 19.49315959 54.05856171 18.1904109 58 15 C62.52598525 9.7400712 62.14969021 7.65278807 63 0 C70.92 0 78.84 0 87 0 C87.0451318 9.09232105 87.08184735 18.18456806 87.10362434 27.27697563 C87.11407464 31.4986575 87.12825645 35.72025895 87.15087891 39.94189453 C87.17256303 44.01377277 87.18455923 48.08557353 87.18975449 52.15750504 C87.19345824 53.71329087 87.20069046 55.26907232 87.21146011 56.82482529 C87.22591638 58.99903374 87.22798044 61.17291942 87.22705078 63.34716797 C87.231492 64.58626923 87.23593323 65.82537048 87.24050903 67.10202026 C87 70 87 70 85 72 C82.38623047 72.22705078 82.38623047 72.22705078 79.1171875 72.1953125 C77.95058594 72.18886719 76.78398437 72.18242187 75.58203125 72.17578125 C74.35871094 72.15902344 73.13539063 72.14226562 71.875 72.125 C70.64394531 72.11597656 69.41289062 72.10695313 68.14453125 72.09765625 C65.09616185 72.07402548 62.04817618 72.04108054 59 72 C58.98643521 70.56382837 58.97677274 69.12761953 58.96875 67.69140625 C58.96294922 66.89162354 58.95714844 66.09184082 58.95117188 65.26782227 C59.00534532 62.75173645 59.37139221 60.43585519 60 58 C60.62648438 57.97421875 61.25296875 57.9484375 61.8984375 57.921875 C62.71570313 57.86515625 63.53296875 57.8084375 64.375 57.75 C65.18710937 57.70359375 65.99921875 57.6571875 66.8359375 57.609375 C69.14636833 57.20627563 69.14636833 57.20627563 70.28125 55.15625 C71.20898732 52.37303804 71.132383 49.91242609 71 47 C68.36 46.67 65.72 46.34 63 46 C62.49954102 39.86937754 63.61557456 36.93159136 67 32 C71.06725434 29.2884971 74.1547611 29.42132512 79 29 C78.505 24.545 78.505 24.545 78 20 C66.81991405 19.32766252 66.81991405 19.32766252 57 24 C51.86370335 28.79926931 49.2216063 34.39092538 47.91796875 41.203125 C47.74418701 42.10192383 47.57040527 43.00072266 47.39135742 43.92675781 C47.26220947 44.61092773 47.13306152 45.29509766 47 46 C46.39003174 46.02505615 45.78006348 46.0501123 45.15161133 46.07592773 C42.37172102 46.1924058 39.5921266 46.31489632 36.8125 46.4375 C35.85279297 46.47681641 34.89308594 46.51613281 33.90429688 46.55664062 C32.97294922 46.59853516 32.04160156 46.64042969 31.08203125 46.68359375 C30.22843018 46.72025146 29.3748291 46.75690918 28.49536133 46.79467773 C25.56222106 46.98785131 25.56222106 46.98785131 21 48 C24.3 48.66 27.6 49.32 31 50 C31.33 51.65 31.66 53.3 32 55 C27.545 55.495 27.545 55.495 23 56 C29.93 56.66 36.86 57.32 44 58 C43.34 62.62 42.68 67.24 42 72 C36.50076251 72.07411371 31.00181521 72.12858464 25.50219727 72.16479492 C23.63105201 72.17988873 21.75994217 72.20036589 19.88891602 72.22631836 C17.20059474 72.26267593 14.51274087 72.27972015 11.82421875 72.29296875 C10.56782845 72.31619453 10.56782845 72.31619453 9.28605652 72.33988953 C3.53324064 72.34155949 3.53324064 72.34155949 1.27624512 70.89587402 C-0.63795628 68.05230999 -0.35917146 65.72837765 -0.34057617 62.32543945 C-0.34123329 61.31528778 -0.34123329 61.31528778 -0.34190369 60.284729 C-0.33981501 58.06061731 -0.3164815 55.83726112 -0.29296875 53.61328125 C-0.28737305 52.07057609 -0.28310283 50.5278656 -0.28010559 48.9851532 C-0.26865471 44.92602809 -0.23918569 40.86722534 -0.20599365 36.80822754 C-0.17529787 32.66581585 -0.16160132 28.52335203 -0.14648438 24.38085938 C-0.11431593 16.25374187 -0.06154627 8.12694818 0 0 Z " fill="#FAE008" transform="translate(278,129)"/>
<path d="M0 0 C1.74216797 0.02707031 1.74216797 0.02707031 3.51953125 0.0546875 C4.84017578 0.08949219 4.84017578 0.08949219 6.1875 0.125 C8.11887318 3.64422149 8.45669991 6.0870014 8.1875 10.125 C6.64272376 11.66977624 5.01722722 11.31478649 2.875 11.4375 C-0.36239609 11.76637833 -1.57820939 11.95078391 -4.25 13.9375 C-7.37423618 18.31143066 -8.19005708 21.73049473 -8.8125 27.125 C-7.513125 27.104375 -6.21375 27.08375 -4.875 27.0625 C-3.52084367 27.04100546 -2.16493917 27.05351801 -0.8125 27.125 C-0.4825 27.455 -0.1525 27.785 0.1875 28.125 C0.13671875 30.12109375 0.13671875 30.12109375 -0.125 32.5625 C-0.20363281 33.36558594 -0.28226562 34.16867188 -0.36328125 34.99609375 C-0.8125 37.125 -0.8125 37.125 -2.8125 39.125 C-4.9765625 39.3203125 -4.9765625 39.3203125 -7.4375 39.25 C-8.25476563 39.23195312 -9.07203125 39.21390625 -9.9140625 39.1953125 C-10.54054688 39.17210937 -11.16703125 39.14890625 -11.8125 39.125 C-11.90337891 40.13820313 -11.90337891 40.13820313 -11.99609375 41.171875 C-12.07988281 42.06390625 -12.16367187 42.9559375 -12.25 43.875 C-12.33121094 44.75671875 -12.41242188 45.6384375 -12.49609375 46.546875 C-12.8125 49.125 -12.8125 49.125 -13.8125 53.125 C-19.0925 53.125 -24.3725 53.125 -29.8125 53.125 C-28.9375 42.5 -28.9375 42.5 -27.8125 39.125 C-28.45832031 39.13660156 -29.10414063 39.14820313 -29.76953125 39.16015625 C-39.47539057 39.25309882 -49.12773514 38.6923084 -58.8125 38.125 C-58.8125 37.795 -58.8125 37.465 -58.8125 37.125 C-52.43944402 36.37992456 -46.22938675 36.02150183 -39.8125 36.125 C-39.8125 35.465 -39.8125 34.805 -39.8125 34.125 C-41.4625 34.125 -43.1125 34.125 -44.8125 34.125 C-42.8325 33.63 -42.8325 33.63 -40.8125 33.125 C-40.8125 32.465 -40.8125 31.805 -40.8125 31.125 C-41.52277344 31.07601562 -42.23304688 31.02703125 -42.96484375 30.9765625 C-43.88394531 30.90179688 -44.80304688 30.82703125 -45.75 30.75 C-46.66652344 30.68039063 -47.58304687 30.61078125 -48.52734375 30.5390625 C-49.28144531 30.40242188 -50.03554688 30.26578125 -50.8125 30.125 C-51.1425 29.465 -51.4725 28.805 -51.8125 28.125 C-46.17723035 26.92015278 -40.66713885 27.0120357 -34.9375 27.0625 C-33.96296875 27.06701172 -32.9884375 27.07152344 -31.984375 27.07617188 C-29.59368566 27.08789094 -27.2031256 27.10429781 -24.8125 27.125 C-24.76496582 26.45823242 -24.71743164 25.79146484 -24.66845703 25.10449219 C-23.9561604 16.54134625 -21.82908195 10.56380643 -15.3125 4.6875 C-10.49942529 0.70309146 -6.18448201 -0.12493903 0 0 Z " fill="#157AD3" transform="translate(349.8125,147.875)"/>
<path d="M0 0 C0.78375 0.04125 1.5675 0.0825 2.375 0.125 C3.035 1.445 3.695 2.765 4.375 4.125 C5.303125 3.135 5.303125 3.135 6.25 2.125 C10.64395023 -0.68712814 14.29309253 -0.76641656 19.375 0.125 C22.5 1.75 22.5 1.75 24.375 5.125 C25.34961462 12.24583293 25.38926692 19.29779254 21.578125 25.578125 C18.59109676 29.41858988 15.05385979 31.87730405 10.375 33.125 C7.03425734 33.27918812 3.71643602 33.24178806 0.375 33.125 C0.230625 34.383125 0.08625 35.64125 -0.0625 36.9375 C-0.36248686 39.55167123 -0.78313297 41.59939892 -1.625 44.125 C-4.265 44.125 -6.905 44.125 -9.625 44.125 C-9.93466319 35.84558408 -8.90602838 27.95495713 -7.59863281 19.80859375 C-7.24652707 17.603248 -6.91169836 15.3957166 -6.578125 13.1875 C-6.35779113 11.78108978 -6.1364735 10.37483324 -5.9140625 8.96875 C-5.71506348 7.70224609 -5.51606445 6.43574219 -5.31103516 5.13085938 C-4.4598485 1.40138957 -3.93080995 0.18718143 0 0 Z " fill="#167BD8" transform="translate(112.625,148.875)"/>
<path d="M0 0 C0.98588356 -0.00525696 0.98588356 -0.00525696 1.99168396 -0.01062012 C4.16391571 -0.01942099 6.33582159 -0.01359359 8.50805664 -0.00683594 C10.01876386 -0.00818323 11.52947066 -0.01012429 13.04017639 -0.01263428 C16.20683926 -0.01558344 19.37338931 -0.01129523 22.54003906 -0.00195312 C26.59655986 0.0094316 30.65281571 0.00288696 34.70932674 -0.00909805 C37.82945241 -0.01633062 40.94951545 -0.01402215 44.06964302 -0.00884247 C45.5651509 -0.00750933 47.06066448 -0.00914194 48.5561657 -0.01380157 C50.64827368 -0.01888874 52.73995498 -0.01112577 54.83203125 0 C56.6171537 0.00238678 56.6171537 0.00238678 58.43833923 0.00482178 C61.38548946 0.25084013 63.11326575 0.4981584 65.48071289 2.25878906 C65.69727539 3.96035156 65.69727539 3.96035156 65.91821289 5.69628906 C66.07813827 9.4265578 66.07813827 9.4265578 69.04321289 11.13378906 C69.84758789 11.50503906 70.65196289 11.87628906 71.48071289 12.25878906 C71.48071289 12.58878906 71.48071289 12.91878906 71.48071289 13.25878906 C42.77071289 13.25878906 14.06071289 13.25878906 -15.51928711 13.25878906 C-14.19928711 11.93878906 -12.87928711 10.61878906 -11.51928711 9.25878906 C-10.85928711 9.25878906 -10.19928711 9.25878906 -9.51928711 9.25878906 C-9.58116211 8.14503906 -9.64303711 7.03128906 -9.70678711 5.88378906 C-9.64491211 4.68753906 -9.58303711 3.49128906 -9.51928711 2.25878906 C-5.91551051 -0.14372867 -4.28508831 0.00573317 0 0 Z " fill="#FECB01" transform="translate(293.519287109375,113.7412109375)"/>
<path d="M0 0 C0.81082031 0.00515625 1.62164062 0.0103125 2.45703125 0.015625 C5.91366011 0.06133249 8.56491265 0.14663755 11.875 1.25 C12.0556402 7.85514807 11.36370512 14.15236897 10.4375 20.6875 C10.30279297 21.69232422 10.16808594 22.69714844 10.02929688 23.73242188 C9.00537799 31.11962201 9.00537799 31.11962201 7.875 32.25 C5.87541636 32.29080783 3.87454746 32.29254356 1.875 32.25 C1.215 30.93 0.555 29.61 -0.125 28.25 C-0.63289063 28.6109375 -1.14078125 28.971875 -1.6640625 29.34375 C-4.90008404 31.52533756 -7.44877241 33.11740636 -11.3125 33.875 C-15.13323377 33.02594805 -16.65671645 31.21194026 -19.125 28.25 C-21.48409789 23.53180422 -20.70655403 17.35231368 -20.125 12.25 C-16.10994245 2.52224313 -10.00745502 -0.25701329 0 0 Z " fill="#147AD9" transform="translate(192.125,148.75)"/>
<path d="M0 0 C28.71 0 57.42 0 87 0 C87 0.66 87 1.32 87 2 C79.08 2 71.16 2 63 2 C63 4.97 63 7.94 63 11 C60.46759618 15.9710149 57.01138866 19.49430567 52 22 C35.6142848 23.31235705 35.6142848 23.31235705 29.484375 18.484375 C25.80268822 14.80268822 24.08975578 12.39121467 23.75 7.125 C23.8325 6.09375 23.915 5.0625 24 4 C21.53879159 2.76939579 19.74223134 2.7942277 16.9921875 2.68359375 C16.00605469 2.64169922 15.01992188 2.59980469 14.00390625 2.55664062 C12.45509766 2.49766602 12.45509766 2.49766602 10.875 2.4375 C9.83472656 2.39431641 8.79445313 2.35113281 7.72265625 2.30664062 C5.14857472 2.2003712 2.57439492 2.09833417 0 2 C0 1.34 0 0.68 0 0 Z " fill="#FDEA21" transform="translate(278,127)"/>
<path d="M0 0 C2.33294775 -0.04241723 4.66702567 -0.04092937 7 0 C7.33 0.33 7.66 0.66 8 1 C7.93321957 2.42060192 7.79354668 3.83785218 7.625 5.25 C6.92872385 11.48935773 6.46119794 17.73948327 6 24 C9.95331737 22.5270295 10.98074137 20.580748 12.8125 16.875 C14.33984375 14.15625 14.33984375 14.15625 16 12 C19.875 11.375 19.875 11.375 23 12 C23.67578125 13.6875 23.67578125 13.6875 24 16 C22.85546875 18.4375 22.85546875 18.4375 21.1875 21 C20.11995651 22.66344069 19.05716621 24.32994502 18 26 C17.56429687 26.66 17.12859375 27.32 16.6796875 28 C15.69556237 30.89581649 16.64441598 32.28989419 17.9375 35 C20.07787138 39.51473835 20.07787138 39.51473835 19.62890625 42.3125 C19.42136719 42.869375 19.21382812 43.42625 19 44 C16.36 44 13.72 44 11 44 C10.3291288 42.3767313 9.66342971 40.75132422 9 39.125 C8.62875 38.22007812 8.2575 37.31515625 7.875 36.3828125 C7 34 7 34 7 32 C5.68 32 4.36 32 3 32 C2.93941406 32.78246094 2.87882813 33.56492188 2.81640625 34.37109375 C2.73261719 35.38300781 2.64882812 36.39492187 2.5625 37.4375 C2.48128906 38.44683594 2.40007812 39.45617187 2.31640625 40.49609375 C2 43 2 43 1 44 C-1.67058851 44.14115161 -4.32432238 44.04247107 -7 44 C-7.09715484 38.6498089 -6.79642255 33.66529975 -5.9765625 28.359375 C-5.81720718 27.32517426 -5.81720718 27.32517426 -5.65463257 26.27008057 C-5.43064624 24.82769449 -5.20361571 23.38577804 -4.97363281 21.94433594 C-4.6238743 19.7429147 -4.28794424 17.53967468 -3.953125 15.3359375 C-3.73259491 13.9269541 -3.51126873 12.51809503 -3.2890625 11.109375 C-3.09006348 9.84061523 -2.89106445 8.57185547 -2.68603516 7.26464844 C-2.09770856 4.46496758 -1.44260663 2.44086284 0 0 Z " fill="#157BD8" transform="translate(147,137)"/>
<path d="M0 0 C1.084021 0.00523682 2.16804199 0.01047363 3.28491211 0.01586914 C5.03964844 0.02070313 5.03964844 0.02070313 6.82983398 0.02563477 C8.0615332 0.03401367 9.29323242 0.04239258 10.56225586 0.05102539 C12.41560547 0.05779297 12.41560547 0.05779297 14.30639648 0.06469727 C17.37089703 0.07652931 20.43530307 0.09301366 23.49975586 0.11352539 C23.54217309 2.44647314 23.54068523 4.78055106 23.49975586 7.11352539 C21.38049982 9.23278143 16.88014656 8.53183557 13.93725586 8.67602539 C13.13094727 8.71920898 12.32463867 8.76239258 11.49389648 8.80688477 C9.49606781 8.91327801 7.49793516 9.01393427 5.49975586 9.11352539 C5.16975586 12.41352539 4.83975586 15.71352539 4.49975586 19.11352539 C8.78975586 19.11352539 13.07975586 19.11352539 17.49975586 19.11352539 C17.54217309 21.44647314 17.54068523 23.78055106 17.49975586 26.11352539 C16.49975586 27.11352539 16.49975586 27.11352539 13.12084961 27.21118164 C11.72628508 27.20450908 10.33173843 27.19255071 8.93725586 27.17602539 C8.22633789 27.17151367 7.51541992 27.16700195 6.78295898 27.16235352 C5.02185573 27.15053403 3.2607955 27.13259802 1.49975586 27.11352539 C1.43916992 28.25692383 1.37858398 29.40032227 1.31616211 30.57836914 C1.23177158 32.06926844 1.14712284 33.56015314 1.06225586 35.05102539 C1.00328125 36.18314453 1.00328125 36.18314453 0.94311523 37.33813477 C0.61303711 43.00024414 0.61303711 43.00024414 -0.50024414 44.11352539 C-2.31274414 44.24633789 -2.31274414 44.24633789 -4.50024414 44.23852539 C-5.22211914 44.24110352 -5.94399414 44.24368164 -6.68774414 44.24633789 C-8.50024414 44.11352539 -8.50024414 44.11352539 -9.50024414 43.11352539 C-9.44952814 35.73434776 -7.66039048 0.34782556 0 0 Z " fill="#187CD6" transform="translate(49.500244140625,136.886474609375)"/>
<path d="M0 0 C3 0.125 3 0.125 4 1.125 C4.04092937 3.45797433 4.04241723 5.79205225 4 8.125 C5.65 8.455 7.3 8.785 9 9.125 C9.042721 10.79111905 9.04063832 12.45882885 9 14.125 C8.67 14.455 8.34 14.785 8 15.125 C6.02 15.125 4.04 15.125 2 15.125 C1.67 20.735 1.34 26.345 1 32.125 C2.65 32.455 4.3 32.785 6 33.125 C6.21620175 35.7914882 6.30894168 37.56504321 5 39.9375 C1.87627726 41.79221038 -1.52862382 41.97118959 -5 41.125 C-7.92311587 38.97489726 -8.88963856 37.82364405 -9.4609375 34.20703125 C-9.28641997 27.56743251 -8.74059204 21.54343313 -7 15.125 C-7.99 15.125 -8.98 15.125 -10 15.125 C-10 13.145 -10 11.165 -10 9.125 C-8.35 8.795 -6.7 8.465 -5 8.125 C-4.855625 6.990625 -4.71125 5.85625 -4.5625 4.6875 C-3.84768212 0.16032009 -3.84768212 0.16032009 0 0 Z " fill="#157BD8" transform="translate(242,140.875)"/>
<path d="M0 0 C3.5 0.125 3.5 0.125 4.5 1.125 C4.25941042 9.39559978 2.99520468 17.67652352 1.9375 25.875 C1.79892578 26.96554688 1.66035156 28.05609375 1.51757812 29.1796875 C1.18067711 31.8284265 0.84145904 34.47684543 0.5 37.125 C1.49 37.455 2.48 37.785 3.5 38.125 C3.6875 40.5 3.6875 40.5 3.5 43.125 C0.00875983 45.45249345 -1.39222251 45.62799316 -5.5 45.125 C-7.875 43.6875 -7.875 43.6875 -9.5 41.125 C-10.03780877 33.37227971 -8.6946023 25.87643535 -7.41870117 18.25634766 C-7.05885963 16.10321764 -6.71129561 13.94835227 -6.36523438 11.79296875 C-4.46201133 0.15935755 -4.46201133 0.15935755 0 0 Z " fill="#167CD7" transform="translate(82.5,136.875)"/>
<path d="M0 0 C1.4540625 0.0309375 1.4540625 0.0309375 2.9375 0.0625 C3.2675 1.7125 3.5975 3.3625 3.9375 5.0625 C4.38480469 4.68996094 4.83210937 4.31742188 5.29296875 3.93359375 C10.29256003 0.02133362 10.29256003 0.02133362 13.875 0.25 C14.8959375 0.6521875 14.8959375 0.6521875 15.9375 1.0625 C15.9375 4.3125 15.9375 4.3125 14.9375 8.0625 C13.01335129 9.44305513 11.1472915 10.27933432 8.9453125 11.140625 C6.55147821 12.23973958 5.47114378 12.89578234 3.9375 15.0625 C3.27180329 17.79925314 2.74119453 20.41560013 2.3125 23.1875 C1.04222973 30.95777027 1.04222973 30.95777027 -0.0625 32.0625 C-3.5625 32.1875 -3.5625 32.1875 -7.0625 32.0625 C-7.3925 31.7325 -7.7225 31.4025 -8.0625 31.0625 C-8.00810626 23.7873373 -6.73846295 16.53826582 -5.5625 9.375 C-5.43198242 8.57263916 -5.30146484 7.77027832 -5.16699219 6.94360352 C-3.99981381 0.08162885 -3.99981381 0.08162885 0 0 Z " fill="#167BD7" transform="translate(214.0625,148.9375)"/>
<path d="M0 0 C2.33294775 -0.04241723 4.66702567 -0.04092937 7 0 C7.33 0.33 7.66 0.66 8 1 C7.9500871 8.48693565 6.7864353 15.8927114 5.5 23.25 C5.36948242 24.00087891 5.23896484 24.75175781 5.10449219 25.52539062 C4.12979073 30.87020927 4.12979073 30.87020927 3 32 C0.32941149 32.14115161 -2.32432238 32.04247107 -5 32 C-5.1593093 25.77245464 -4.57406304 19.90065856 -3.625 13.75 C-3.49867187 12.86570313 -3.37234375 11.98140625 -3.2421875 11.0703125 C-3.11328125 10.21695313 -2.984375 9.36359375 -2.8515625 8.484375 C-2.73635254 7.71834961 -2.62114258 6.95232422 -2.50244141 6.16308594 C-1.97095467 3.87495548 -1.12955043 2.05171564 0 0 Z " fill="#187CD6" transform="translate(95,149)"/>
<path d="M0 0 C2.0625 0.4375 2.0625 0.4375 4 1 C4 2.32 4 3.64 4 5 C3.01 5.495 3.01 5.495 2 6 C5.31190729 5.61036385 6.94753565 5.04018381 9.63671875 2.98046875 C13.8859891 0.47828516 16.86651549 0.43355218 21.6875 0.5625 C22.44611328 0.55541016 23.20472656 0.54832031 23.98632812 0.54101562 C29.50515934 0.60433849 29.50515934 0.60433849 31.83203125 2.46484375 C32.21746094 2.97144531 32.60289062 3.47804688 33 4 C33.99 4.33 34.98 4.66 36 5 C36 3.35 36 1.7 36 0 C37.32 0.33 38.64 0.66 40 1 C39.67 2.65 39.34 4.3 39 6 C43.29 6.66 47.58 7.32 52 8 C52 8.33 52 8.66 52 9 C45.02572411 9.02544556 38.05146028 9.04290697 31.07714844 9.05493164 C28.70670118 9.05994692 26.33625699 9.06676073 23.96582031 9.07543945 C20.55012247 9.08762813 17.13446569 9.09325649 13.71875 9.09765625 C12.66635132 9.10281754 11.61395264 9.10797882 10.52966309 9.11329651 C4.92087933 9.11371996 -0.45252479 8.83850436 -6 8 C-6 7.67 -6 7.34 -6 7 C-4.35 6.67 -2.7 6.34 -1 6 C-1.020625 5.195625 -1.04125 4.39125 -1.0625 3.5625 C-1 1 -1 1 0 0 Z " fill="#F7B607" transform="translate(302,118)"/>
<path d="M0 0 C0.90177623 8.29968119 0.90177623 8.29968119 -1.16015625 12.1875 C-3.5527261 15.12467015 -5.23473414 16.75045678 -8.875 17.9375 C-9.57625 17.958125 -10.2775 17.97875 -11 18 C-13.69907896 13.95138156 -13.76793857 10.75313554 -13 6 C-10.25881748 -0.27284559 -6.1819499 -0.62867287 0 0 Z " fill="#EFE631" transform="translate(194,156)"/>
<path d="M0 0 C1.875 0.6875 1.875 0.6875 2.875 1.6875 C3.45604903 7.09572561 3.35084366 11.27585227 -0.125 15.6875 C-2.125 17.6875 -2.125 17.6875 -4.0703125 17.8828125 C-6.08854167 17.81770833 -8.10677083 17.75260417 -10.125 17.6875 C-10.98591417 8.00699849 -10.98591417 8.00699849 -7.8125 4.1875 C-2.85896825 -0.42043651 -2.85896825 -0.42043651 0 0 Z " fill="#F6E92D" transform="translate(125.125,156.3125)"/>
<path d="M0 0 C0.66 0 1.32 0 2 0 C2.15855469 0.60328125 2.31710937 1.2065625 2.48046875 1.828125 C4.28836008 8.02090194 6.18971817 10.79992095 11.8671875 14.078125 C17.88768424 16.68039099 25.28374028 15.21671062 31.22265625 12.97265625 C33.2085647 12.07093196 33.2085647 12.07093196 34.4375 9.75 C34.7159375 8.38875 34.7159375 8.38875 35 7 C35.37125 5.741875 35.7425 4.48375 36.125 3.1875 C36.41375 2.135625 36.7025 1.08375 37 0 C37.66 0 38.32 0 39 0 C39.45858928 5.73236598 38.65645061 8.55296547 35 13 C28.42293228 18.79408347 22.32165222 18.69468134 13.89941406 18.2265625 C8.2261932 17.54985955 5.08183944 14.24411536 1.5 10.125 C-0.24164038 6.49658255 -0.31817283 3.97716039 0 0 Z " fill="#FEFAE9" transform="translate(302,131)"/>
<path d="M0 0 C2.0625 0.4375 2.0625 0.4375 4 1 C4 2.32 4 3.64 4 5 C3.01 5.495 3.01 5.495 2 6 C7.75617118 5.45661245 7.75617118 5.45661245 13.4375 4.4375 C20.98254898 3.14932091 27.03623979 3.90499546 34 7 C34 7.33 34 7.66 34 8 C20.8 8 7.6 8 -6 8 C-6 7.67 -6 7.34 -6 7 C-4.35 6.67 -2.7 6.34 -1 6 C-1.020625 5.195625 -1.04125 4.39125 -1.0625 3.5625 C-1 1 -1 1 0 0 Z " fill="#FEA900" transform="translate(302,118)"/>
<path d="M0 0 C2 0 4 0 6 0 C5.79896134 2.77553371 5.56561742 5.5416482 5.3125 8.3125 C5.25900391 9.09818359 5.20550781 9.88386719 5.15039062 10.69335938 C4.93367513 12.90762634 4.6898017 14.88344815 4 17 C1.41796875 19.04296875 1.41796875 19.04296875 -1 20 C-1.33 19.67 -1.66 19.34 -2 19 C-1.77928464 12.63938459 -0.99953669 6.28280205 0 0 Z " fill="#E9E336" transform="translate(203,158)"/>
<path d="M0 0 C3.4375 0.1875 3.4375 0.1875 4.4375 1.1875 C4.625 4.125 4.625 4.125 4.4375 7.1875 C2.4375 9.1875 2.4375 9.1875 -1.125 9.375 C-4.5625 9.1875 -4.5625 9.1875 -5.5625 8.1875 C-5.75 5.25 -5.75 5.25 -5.5625 2.1875 C-3.5625 0.1875 -3.5625 0.1875 0 0 Z " fill="#157BD9" transform="translate(100.5625,136.8125)"/>
<path d="M0 0 C0 4.06416351 -1.58440486 5.41906775 -4.234375 8.34765625 C-8.71572259 12.54148375 -13.84730783 13.55633759 -19.78125 13.36328125 C-23.51805167 12.75144576 -25.92075158 11.1811343 -29 9 C-29.33 8.34 -29.66 7.68 -30 7 C-29.19304687 7.32742187 -28.38609375 7.65484375 -27.5546875 7.9921875 C-23.28041953 9.20401292 -19.53391372 9.22214556 -15.125 9.125 C-14.34125 9.11597656 -13.5575 9.10695312 -12.75 9.09765625 C-10.83319945 9.07428063 -8.91655809 9.03841653 -7 9 C-7 8.01 -7 7.02 -7 6 C-5.46875 4.39453125 -5.46875 4.39453125 -3.5 2.8125 C-2.8503125 2.28269531 -2.200625 1.75289062 -1.53125 1.20703125 C-1.0259375 0.80871094 -0.520625 0.41039062 0 0 Z " fill="#D9C60F" transform="translate(339,141)"/>
<path d="M0 0 C3.40766547 1.19728787 5.61275326 2.28721961 8 5 C8.99 5.99 9.98 6.98 11 8 C7.37 8 3.74 8 0 8 C0 5.36 0 2.72 0 0 Z " fill="#FDE30B" transform="translate(354,119)"/>
<path d="M0 0 C0 2.31 0 4.62 0 7 C-3.63 7 -7.26 7 -11 7 C-8.30431245 3.99327157 -4.35156516 0 0 0 Z " fill="#FCE60B" transform="translate(289,120)"/>
<path d="M0 0 C0.33 0 0.66 0 1 0 C1 2.31 1 4.62 1 7 C-4.28 7 -9.56 7 -15 7 C-14.67 5.35 -14.34 3.7 -14 2 C-13.67 2.99 -13.34 3.98 -13 5 C-8.71 5 -4.42 5 0 5 C0 3.35 0 1.7 0 0 Z " fill="#237DCB" transform="translate(335,194)"/>
<path d="M0 0 C0.8971875 0.309375 0.8971875 0.309375 1.8125 0.625 C2.1425 1.945 2.4725 3.265 2.8125 4.625 C2.1525 4.625 1.4925 4.625 0.8125 4.625 C0.8125 3.635 0.8125 2.645 0.8125 1.625 C-0.01894531 2.38296875 -0.01894531 2.38296875 -0.8671875 3.15625 C-1.59164062 3.8059375 -2.31609375 4.455625 -3.0625 5.125 C-3.78179687 5.7746875 -4.50109375 6.424375 -5.2421875 7.09375 C-7.1875 8.625 -7.1875 8.625 -9.1875 8.625 C-9.5175 9.615 -9.8475 10.605 -10.1875 11.625 C-9.68322053 7.21255464 -8.17422249 4.87525683 -5.1875 1.625 C-2.1875 -0.375 -2.1875 -0.375 0 0 Z " fill="#DFE139" transform="translate(125.1875,156.375)"/>
<path d="M0 0 C2 0 4 0 6 0 C5.58419156 2.41168893 5.33582033 3.69216469 3.5 5.375 C1.36072601 7.69254683 1.340489 9.93559899 1 13 C0.34 13 -0.32 13 -1 13 C-0.67 8.71 -0.34 4.42 0 0 Z " fill="#E3E03B" transform="translate(203,158)"/>
<path d="M0 0 C5.75 1.875 5.75 1.875 8 3 C9.53668865 3.22467831 11.07968054 3.40796805 12.625 3.5625 C13.44226563 3.64628906 14.25953125 3.73007813 15.1015625 3.81640625 C15.72804688 3.87699219 16.35453125 3.93757812 17 4 C17 4.66 17 5.32 17 6 C10.37289801 6.54098792 6.46810721 5.87324261 1 2 C0.67 1.34 0.34 0.68 0 0 Z " fill="#CCB908" transform="translate(309,148)"/>
<path d="M0 0 C1.134375 0.020625 2.26875 0.04125 3.4375 0.0625 C3.7675 1.3825 4.0975 2.7025 4.4375 4.0625 C4.1075 3.4025 3.7775 2.7425 3.4375 2.0625 C1.4575 2.0625 -0.5225 2.0625 -2.5625 2.0625 C-2.8925 5.0325 -3.2225 8.0025 -3.5625 11.0625 C-4.2225 10.7325 -4.8825 10.4025 -5.5625 10.0625 C-5.42200482 8.58281676 -5.27495174 7.10375484 -5.125 5.625 C-5.04378906 4.80128906 -4.96257812 3.97757813 -4.87890625 3.12890625 C-4.33318036 -0.43515544 -3.8167938 0.06696129 0 0 Z " fill="#2581CF" transform="translate(82.5625,136.9375)"/>
<path d="M0 0 C2.0625 0.4375 2.0625 0.4375 4 1 C4 5 4 5 2.9375 6.75 C0.01701466 8.63418409 -2.61447605 8.19163343 -6 8 C-6 7.67 -6 7.34 -6 7 C-4.35 6.67 -2.7 6.34 -1 6 C-1.020625 5.195625 -1.04125 4.39125 -1.0625 3.5625 C-1 1 -1 1 0 0 Z " fill="#D8A005" transform="translate(302,118)"/>
<path d="M0 0 C2.33294775 -0.04241723 4.66702567 -0.04092937 7 0 C7.33 0.33 7.66 0.66 8 1 C7.91036938 2.69141656 7.75422324 4.37959602 7.5625 6.0625 C7.46066406 6.98160156 7.35882813 7.90070313 7.25390625 8.84765625 C7.12822266 9.91306641 7.12822266 9.91306641 7 11 C5.05433049 7.52452927 4.92362873 5.87493656 6 2 C4.02 2 2.04 2 0 2 C0 1.34 0 0.68 0 0 Z " fill="#2481CF" transform="translate(147,137)"/>
<path d="M0 0 C0.33 0 0.66 0 1 0 C1.125 7.625 1.125 7.625 0 11 C-0.99 11 -1.98 11 -3 11 C-3 9.02 -3 7.04 -3 5 C-2.01 4.67 -1.02 4.34 0 4 C0 2.68 0 1.36 0 0 Z " fill="#F7EB2A" transform="translate(207,160)"/>
<path d="M0 0 C0.99 0 1.98 0 3 0 C3.33 2.31 3.66 4.62 4 7 C2.68 7.33 1.36 7.66 0 8 C0 5.36 0 2.72 0 0 Z " fill="#FAED27" transform="translate(100,172)"/>
<path d="M0 0 C0.99 1.485 0.99 1.485 2 3 C2.99 3.33 3.98 3.66 5 4 C4.67 6.97 4.34 9.94 4 13 C2 9 2 9 2 6 C1.34 5.67 0.68 5.34 0 5 C0 3.35 0 1.7 0 0 Z " fill="#E5E533" transform="translate(230,152)"/>
<path d="M0 0 C1.98 0 3.96 0 6 0 C6 0.66 6 1.32 6 2 C5.21625 2.0825 4.4325 2.165 3.625 2.25 C0.85250896 2.72806339 0.85250896 2.72806339 -0.3125 5.0625 C-0.539375 5.701875 -0.76625 6.34125 -1 7 C-1.33 6.34 -1.66 5.68 -2 5 C-1.0625 2.375 -1.0625 2.375 0 0 Z " fill="#217FD2" transform="translate(239,141)"/>
</svg>
