<svg xmlns="http://www.w3.org/2000/svg" xmlns:xlink="http://www.w3.org/1999/xlink" width="1920" zoomAndPan="magnify" viewBox="0 0 1440 809.999993" height="1080" preserveAspectRatio="xMidYMid meet" version="1.0"><defs><g/><clipPath id="aa14e2a33e"><path d="M 555.625 403.5 L 884 403.5 L 884 658 L 555.625 658 Z M 555.625 403.5 " clip-rule="nonzero"/></clipPath><clipPath id="056cfa52dd"><rect x="0" width="1047" y="0" height="197"/></clipPath></defs><rect x="-144" width="1728" fill="#ffffff" y="-80.999999" height="971.999992" fill-opacity="1"/><rect x="-144" width="1728" fill="#f8d706" y="-80.999999" height="971.999992" fill-opacity="1"/><g clip-path="url(#aa14e2a33e)"><path fill="#1f74ba" d="M 606.269531 404.339844 L 605.71875 404.339844 L 604.445312 404.050781 L 563.351562 403.933594 L 562.425781 403.933594 C 560.640625 404.140625 559.125 404.894531 557.882812 406.191406 C 557.15625 406.914062 556.597656 407.75 556.207031 408.699219 C 555.8125 409.648438 555.621094 410.636719 555.625 411.660156 C 555.625 412.328125 555.710938 412.984375 555.886719 413.628906 L 556.117188 414.292969 C 556.382812 415.042969 556.753906 415.730469 557.230469 416.363281 C 557.710938 416.996094 558.273438 417.539062 558.921875 417.996094 C 559.570312 418.449219 560.273438 418.796875 561.027344 419.035156 C 561.785156 419.273438 562.558594 419.390625 563.351562 419.386719 L 588.789062 419.386719 C 590.3125 419.363281 591.796875 419.601562 593.238281 420.097656 C 594.679688 420.597656 595.996094 421.324219 597.183594 422.28125 C 599.042969 423.839844 600.351562 425.769531 601.117188 428.070312 L 611.042969 460.683594 L 640.851562 560 C 641.167969 561.015625 641.515625 562.027344 641.863281 562.894531 L 657.203125 613.164062 C 657.203125 613.164062 657.203125 613.164062 657.203125 613.308594 L 657.203125 613.539062 L 657.546875 614.753906 C 657.84375 615.324219 658.203125 615.855469 658.621094 616.347656 C 658.882812 616.691406 659.179688 617 659.515625 617.273438 L 659.71875 617.472656 C 659.851562 617.550781 659.964844 617.648438 660.066406 617.765625 L 660.328125 617.765625 L 660.90625 618.140625 L 661.65625 618.488281 L 662.121094 618.660156 L 663.65625 618.660156 L 664.984375 618.835938 L 671.179688 618.835938 C 671.386719 618.832031 671.59375 618.855469 671.796875 618.902344 C 672 618.949219 672.195312 619.023438 672.378906 619.121094 C 672.566406 619.21875 672.734375 619.335938 672.890625 619.476562 C 673.046875 619.617188 673.179688 619.777344 673.296875 619.949219 C 673.410156 620.125 673.503906 620.3125 673.574219 620.507812 C 673.640625 620.707031 673.683594 620.910156 673.699219 621.117188 C 673.71875 621.328125 673.710938 621.535156 673.675781 621.738281 C 673.640625 621.945312 673.578125 622.144531 673.492188 622.335938 C 673.292969 622.8125 673.109375 623.296875 672.9375 623.785156 C 672.765625 624.277344 672.609375 624.769531 672.46875 625.269531 C 672.332031 625.765625 672.207031 626.269531 672.097656 626.777344 C 671.988281 627.28125 671.894531 627.792969 671.816406 628.304688 C 671.738281 628.816406 671.675781 629.332031 671.628906 629.847656 C 671.582031 630.363281 671.550781 630.878906 671.535156 631.398438 C 671.519531 631.914062 671.523438 632.433594 671.539062 632.949219 C 671.558594 633.46875 671.589844 633.984375 671.640625 634.5 C 671.6875 635.015625 671.753906 635.53125 671.832031 636.042969 C 671.914062 636.554688 672.011719 637.0625 672.121094 637.570312 C 672.234375 638.074219 672.363281 638.578125 672.503906 639.074219 C 672.648438 639.574219 672.804688 640.066406 672.976562 640.554688 C 673.152344 641.042969 673.339844 641.523438 673.542969 642 C 673.746094 642.476562 673.960938 642.949219 674.195312 643.410156 C 674.425781 643.875 674.671875 644.332031 674.929688 644.78125 C 675.191406 645.226562 675.464844 645.667969 675.75 646.097656 C 676.039062 646.53125 676.339844 646.953125 676.652344 647.367188 C 676.964844 647.777344 677.289062 648.179688 677.625 648.574219 C 677.964844 648.96875 678.3125 649.351562 678.675781 649.722656 C 679.035156 650.09375 679.40625 650.453125 679.792969 650.800781 C 680.175781 651.148438 680.566406 651.488281 680.972656 651.8125 C 681.375 652.136719 681.789062 652.445312 682.214844 652.746094 C 682.636719 653.042969 683.066406 653.332031 683.507812 653.601562 C 683.949219 653.875 684.398438 654.132812 684.855469 654.378906 C 685.3125 654.625 685.773438 654.855469 686.246094 655.070312 C 686.71875 655.285156 687.195312 655.488281 687.675781 655.675781 C 688.160156 655.863281 688.648438 656.035156 689.140625 656.191406 C 689.636719 656.347656 690.132812 656.488281 690.636719 656.613281 C 691.140625 656.742188 691.644531 656.851562 692.15625 656.945312 C 692.664062 657.042969 693.175781 657.121094 693.691406 657.183594 C 694.203125 657.246094 694.71875 657.296875 695.238281 657.328125 C 695.753906 657.359375 696.273438 657.375 696.789062 657.375 C 697.308594 657.375 697.824219 657.359375 698.34375 657.328125 C 698.859375 657.296875 699.375 657.246094 699.890625 657.183594 C 700.402344 657.121094 700.914062 657.042969 701.425781 656.945312 C 701.933594 656.851562 702.441406 656.742188 702.941406 656.613281 C 703.445312 656.488281 703.941406 656.347656 704.4375 656.191406 C 704.929688 656.035156 705.417969 655.863281 705.902344 655.675781 C 706.386719 655.488281 706.863281 655.285156 707.332031 655.070312 C 707.804688 654.855469 708.269531 654.625 708.722656 654.378906 C 709.179688 654.132812 709.628906 653.875 710.070312 653.601562 C 710.511719 653.332031 710.941406 653.042969 711.367188 652.746094 C 711.789062 652.445312 712.203125 652.136719 712.605469 651.8125 C 713.011719 651.488281 713.40625 651.148438 713.789062 650.800781 C 714.171875 650.453125 714.542969 650.09375 714.90625 649.722656 C 715.265625 649.351562 715.613281 648.96875 715.953125 648.574219 C 716.289062 648.179688 716.617188 647.777344 716.929688 647.367188 C 717.242188 646.953125 717.542969 646.53125 717.828125 646.097656 C 718.113281 645.667969 718.386719 645.226562 718.648438 644.78125 C 718.90625 644.332031 719.152344 643.875 719.386719 643.410156 C 719.617188 642.949219 719.835938 642.476562 720.035156 642 C 720.238281 641.523438 720.429688 641.042969 720.601562 640.554688 C 720.773438 640.066406 720.933594 639.574219 721.074219 639.074219 C 721.21875 638.578125 721.34375 638.074219 721.457031 637.570312 C 721.570312 637.0625 721.664062 636.554688 721.746094 636.042969 C 721.828125 635.53125 721.890625 635.015625 721.941406 634.5 C 721.988281 633.984375 722.023438 633.46875 722.039062 632.949219 C 722.054688 632.433594 722.058594 631.914062 722.042969 631.398438 C 722.027344 630.878906 721.996094 630.363281 721.953125 629.847656 C 721.90625 629.332031 721.84375 628.816406 721.765625 628.304688 C 721.6875 627.792969 721.59375 627.28125 721.484375 626.777344 C 721.375 626.269531 721.25 625.765625 721.109375 625.269531 C 720.96875 624.769531 720.8125 624.277344 720.640625 623.785156 C 720.472656 623.296875 720.285156 622.8125 720.085938 622.335938 C 719.914062 621.949219 719.84375 621.546875 719.878906 621.125 C 719.917969 620.703125 720.050781 620.316406 720.289062 619.964844 C 720.519531 619.605469 720.824219 619.324219 721.199219 619.117188 C 721.574219 618.914062 721.972656 618.808594 722.402344 618.804688 L 776.285156 618.804688 C 776.710938 618.808594 777.113281 618.910156 777.488281 619.117188 C 777.863281 619.320312 778.167969 619.601562 778.398438 619.964844 C 778.632812 620.316406 778.769531 620.703125 778.804688 621.125 C 778.839844 621.546875 778.773438 621.949219 778.601562 622.335938 C 778.238281 623.195312 777.921875 624.070312 777.65625 624.964844 C 777.390625 625.855469 777.171875 626.761719 777.007812 627.679688 C 776.839844 628.597656 776.726562 629.519531 776.664062 630.449219 C 776.597656 631.378906 776.585938 632.3125 776.625 633.242188 C 776.664062 634.175781 776.753906 635.101562 776.898438 636.023438 C 777.039062 636.941406 777.230469 637.855469 777.472656 638.753906 C 777.714844 639.652344 778.007812 640.539062 778.347656 641.40625 C 778.6875 642.273438 779.074219 643.121094 779.511719 643.945312 C 779.945312 644.769531 780.421875 645.566406 780.945312 646.339844 C 781.46875 647.113281 782.03125 647.851562 782.636719 648.5625 C 783.238281 649.273438 783.882812 649.945312 784.558594 650.585938 C 785.238281 651.222656 785.953125 651.824219 786.695312 652.382812 C 787.441406 652.941406 788.214844 653.457031 789.019531 653.933594 C 789.820312 654.40625 790.648438 654.835938 791.5 655.21875 C 792.347656 655.601562 793.21875 655.933594 794.105469 656.222656 C 794.992188 656.507812 795.890625 656.746094 796.804688 656.929688 C 797.71875 657.117188 798.636719 657.253906 799.566406 657.339844 C 800.496094 657.421875 801.425781 657.457031 802.355469 657.4375 C 803.289062 657.421875 804.21875 657.351562 805.140625 657.230469 C 806.066406 657.109375 806.980469 656.9375 807.886719 656.714844 C 808.792969 656.492188 809.683594 656.222656 810.558594 655.902344 C 811.433594 655.582031 812.289062 655.214844 813.121094 654.796875 C 813.957031 654.382812 814.765625 653.921875 815.550781 653.417969 C 816.332031 652.914062 817.085938 652.367188 817.808594 651.777344 C 818.53125 651.191406 819.222656 650.5625 819.875 649.898438 C 820.527344 649.234375 821.144531 648.535156 821.71875 647.804688 C 822.296875 647.070312 822.832031 646.308594 823.324219 645.515625 C 823.816406 644.726562 824.261719 643.910156 824.664062 643.066406 C 825.066406 642.226562 825.417969 641.367188 825.726562 640.484375 C 826.03125 639.605469 826.289062 638.710938 826.496094 637.800781 C 826.703125 636.894531 826.859375 635.976562 826.96875 635.050781 C 827.074219 634.125 827.128906 633.195312 827.128906 632.261719 C 827.136719 628.777344 826.445312 625.441406 825.046875 622.25 C 824.96875 622.058594 824.917969 621.859375 824.886719 621.652344 C 824.859375 621.449219 824.855469 621.242188 824.875 621.035156 C 824.894531 620.828125 824.941406 620.628906 825.011719 620.433594 C 825.078125 620.238281 825.171875 620.054688 825.285156 619.882812 C 825.398438 619.707031 825.53125 619.550781 825.683594 619.410156 C 825.832031 619.269531 826 619.148438 826.179688 619.046875 C 826.363281 618.945312 826.550781 618.867188 826.75 618.8125 C 826.953125 618.753906 827.15625 618.726562 827.363281 618.71875 L 832.019531 618.71875 C 832.527344 618.71875 833.03125 618.667969 833.527344 618.570312 C 834.027344 618.472656 834.507812 618.324219 834.976562 618.128906 C 835.445312 617.9375 835.890625 617.699219 836.3125 617.417969 C 836.734375 617.136719 837.125 616.816406 837.484375 616.457031 C 837.84375 616.097656 838.164062 615.707031 838.445312 615.285156 C 838.726562 614.863281 838.964844 614.417969 839.160156 613.949219 C 839.355469 613.480469 839.5 612.996094 839.597656 612.5 C 839.699219 612 839.746094 611.5 839.746094 610.992188 C 839.746094 610.484375 839.699219 609.980469 839.597656 609.484375 C 839.5 608.988281 839.355469 608.503906 839.160156 608.035156 C 838.964844 607.566406 838.726562 607.121094 838.445312 606.699219 C 838.164062 606.277344 837.84375 605.886719 837.484375 605.527344 C 837.125 605.167969 836.734375 604.847656 836.3125 604.566406 C 835.890625 604.285156 835.445312 604.046875 834.976562 603.855469 C 834.507812 603.660156 834.027344 603.511719 833.527344 603.414062 C 833.03125 603.316406 832.527344 603.265625 832.019531 603.265625 L 687.152344 603.496094 L 680.496094 603.496094 C 679.824219 603.511719 679.15625 603.46875 678.488281 603.375 C 677.824219 603.285156 677.167969 603.136719 676.523438 602.941406 C 675.882812 602.742188 675.257812 602.496094 674.652344 602.199219 C 674.050781 601.902344 673.472656 601.5625 672.921875 601.175781 C 672.375 600.785156 671.859375 600.355469 671.375 599.886719 C 670.894531 599.417969 670.453125 598.914062 670.050781 598.371094 C 669.652344 597.832031 669.292969 597.265625 668.984375 596.667969 C 668.671875 596.070312 668.410156 595.453125 668.199219 594.816406 L 668.199219 594.640625 L 664.234375 582.632812 C 664.117188 582.25 664.09375 581.867188 664.160156 581.472656 C 664.226562 581.082031 664.375 580.726562 664.609375 580.402344 C 664.84375 580.078125 665.140625 579.824219 665.496094 579.640625 C 665.855469 579.457031 666.234375 579.363281 666.636719 579.363281 L 832.484375 579.363281 C 841.164062 579.363281 846.953125 573.574219 851.035156 560.203125 L 882.867188 454.054688 C 883.269531 452.71875 883.523438 451.355469 883.621094 449.964844 C 883.71875 448.570312 883.660156 447.183594 883.449219 445.804688 C 883.234375 444.425781 882.871094 443.085938 882.359375 441.785156 C 881.847656 440.488281 881.195312 439.261719 880.40625 438.109375 C 879.6875 437.046875 878.859375 436.078125 877.921875 435.195312 C 876.988281 434.316406 875.964844 433.550781 874.859375 432.898438 C 873.753906 432.246094 872.589844 431.71875 871.367188 431.324219 C 870.144531 430.929688 868.894531 430.675781 867.617188 430.558594 L 620.160156 430.558594 C 619.886719 430.558594 619.621094 430.515625 619.363281 430.429688 C 619.105469 430.34375 618.867188 430.222656 618.648438 430.058594 C 618.429688 429.898438 618.242188 429.707031 618.085938 429.484375 C 617.925781 429.265625 617.808594 429.023438 617.730469 428.765625 L 612.085938 410.242188 L 612.085938 410.011719 C 612.09375 409.964844 612.09375 409.914062 612.085938 409.867188 L 611.738281 408.652344 C 611.425781 408.058594 611.050781 407.507812 610.609375 407 C 610.339844 406.664062 610.042969 406.355469 609.710938 406.074219 L 609.453125 405.902344 L 609.105469 405.613281 L 608.84375 405.613281 C 608.648438 405.46875 608.445312 405.332031 608.238281 405.207031 L 607.511719 404.746094 L 607.019531 404.542969 L 607.195312 403.5 L 606.875 404.484375 Z M 801.605469 619.847656 C 802.472656 619.847656 803.328125 619.933594 804.175781 620.101562 C 805.023438 620.269531 805.847656 620.519531 806.644531 620.851562 C 807.445312 621.179688 808.203125 621.585938 808.921875 622.066406 C 809.640625 622.546875 810.304688 623.09375 810.917969 623.703125 C 811.527344 624.316406 812.074219 624.980469 812.554688 625.699219 C 813.035156 626.417969 813.441406 627.175781 813.769531 627.976562 C 814.101562 628.773438 814.351562 629.597656 814.519531 630.445312 C 814.6875 631.292969 814.773438 632.148438 814.773438 633.015625 C 814.773438 633.878906 814.6875 634.734375 814.519531 635.582031 C 814.351562 636.429688 814.101562 637.253906 813.769531 638.054688 C 813.441406 638.851562 813.035156 639.609375 812.554688 640.328125 C 812.074219 641.050781 811.527344 641.714844 810.917969 642.324219 C 810.304688 642.9375 809.640625 643.484375 808.921875 643.960938 C 808.203125 644.441406 807.445312 644.847656 806.644531 645.179688 C 805.847656 645.511719 805.023438 645.761719 804.175781 645.929688 C 803.328125 646.097656 802.472656 646.183594 801.605469 646.183594 C 800.742188 646.183594 799.886719 646.097656 799.039062 645.929688 C 798.191406 645.761719 797.367188 645.511719 796.566406 645.179688 C 795.769531 644.847656 795.011719 644.441406 794.292969 643.960938 C 793.570312 643.484375 792.90625 642.9375 792.296875 642.324219 C 791.683594 641.714844 791.136719 641.050781 790.660156 640.328125 C 790.179688 639.609375 789.773438 638.851562 789.441406 638.054688 C 789.109375 637.253906 788.859375 636.429688 788.691406 635.582031 C 788.523438 634.734375 788.4375 633.878906 788.4375 633.015625 C 788.4375 632.148438 788.523438 631.292969 788.691406 630.445312 C 788.859375 629.597656 789.109375 628.773438 789.441406 627.976562 C 789.773438 627.175781 790.179688 626.417969 790.660156 625.699219 C 791.136719 624.980469 791.683594 624.316406 792.296875 623.703125 C 792.90625 623.09375 793.570312 622.546875 794.292969 622.066406 C 795.011719 621.585938 795.769531 621.179688 796.566406 620.851562 C 797.367188 620.519531 798.191406 620.269531 799.039062 620.101562 C 799.886719 619.933594 800.742188 619.847656 801.605469 619.847656 Z M 696.527344 619.847656 C 697.394531 619.847656 698.25 619.933594 699.097656 620.101562 C 699.945312 620.269531 700.769531 620.519531 701.566406 620.851562 C 702.367188 621.179688 703.125 621.585938 703.84375 622.066406 C 704.5625 622.546875 705.226562 623.09375 705.839844 623.703125 C 706.449219 624.316406 706.996094 624.980469 707.476562 625.699219 C 707.957031 626.417969 708.363281 627.175781 708.695312 627.976562 C 709.023438 628.773438 709.273438 629.597656 709.445312 630.445312 C 709.613281 631.292969 709.695312 632.148438 709.695312 633.015625 C 709.695312 633.878906 709.613281 634.734375 709.445312 635.582031 C 709.273438 636.429688 709.023438 637.253906 708.695312 638.054688 C 708.363281 638.851562 707.957031 639.609375 707.476562 640.328125 C 706.996094 641.046875 706.449219 641.714844 705.839844 642.324219 C 705.226562 642.9375 704.5625 643.484375 703.84375 643.960938 C 703.125 644.441406 702.367188 644.847656 701.566406 645.179688 C 700.769531 645.511719 699.945312 645.761719 699.097656 645.929688 C 698.25 646.097656 697.394531 646.183594 696.527344 646.183594 C 695.664062 646.183594 694.808594 646.097656 693.960938 645.929688 C 693.113281 645.761719 692.289062 645.511719 691.492188 645.179688 C 690.691406 644.847656 689.933594 644.441406 689.214844 643.960938 C 688.496094 643.484375 687.828125 642.9375 687.21875 642.324219 C 686.605469 641.714844 686.0625 641.050781 685.582031 640.328125 C 685.101562 639.609375 684.695312 638.851562 684.363281 638.054688 C 684.035156 637.253906 683.785156 636.429688 683.613281 635.582031 C 683.445312 634.734375 683.363281 633.878906 683.363281 633.015625 C 683.363281 632.144531 683.445312 631.285156 683.617188 630.433594 C 683.789062 629.578125 684.039062 628.75 684.375 627.949219 C 684.710938 627.144531 685.121094 626.382812 685.605469 625.664062 C 686.089844 624.941406 686.640625 624.273438 687.257812 623.664062 C 687.875 623.050781 688.546875 622.503906 689.273438 622.027344 C 690 621.546875 690.765625 621.144531 691.570312 620.816406 C 692.375 620.488281 693.207031 620.242188 694.058594 620.082031 C 694.914062 619.917969 695.777344 619.839844 696.644531 619.847656 Z M 696.527344 619.847656 " fill-opacity="1" fill-rule="nonzero"/></g><g transform="matrix(1, 0, 0, 1, 197, 159)"><g clip-path="url(#056cfa52dd)"><g fill="#1f74ba" fill-opacity="1"><g transform="translate(0.864703, 154.015986)"><g><path d="M 13.46875 0 L 13.46875 -61.6875 L 2.578125 -61.6875 L 2.578125 -77.03125 L 13.46875 -77.03125 C 12.675781 -80.289062 12.28125 -83.335938 12.28125 -86.171875 C 12.28125 -91.054688 13.394531 -95.234375 15.625 -98.703125 C 17.863281 -102.171875 21.078125 -104.8125 25.265625 -106.625 C 29.453125 -108.4375 34.425781 -109.34375 40.1875 -109.34375 C 48.707031 -109.34375 55.054688 -107.878906 59.234375 -104.953125 L 54.703125 -90.71875 L 53.234375 -90.4375 C 50.359375 -92.476562 46.660156 -93.5 42.140625 -93.5 C 38.648438 -93.5 36.03125 -92.648438 34.28125 -90.953125 C 32.539062 -89.253906 31.671875 -86.941406 31.671875 -84.015625 C 31.671875 -82.753906 31.753906 -81.597656 31.921875 -80.546875 C 32.085938 -79.503906 32.378906 -78.332031 32.796875 -77.03125 L 54.78125 -77.03125 L 54.78125 -61.6875 L 32.796875 -61.6875 L 32.796875 0 Z M 13.46875 0 "/></g></g></g><g fill="#1f74ba" fill-opacity="1"><g transform="translate(56.408349, 154.015986)"><g><path d="M 31.953125 1.46875 C 25.023438 1.46875 19.734375 -0.398438 16.078125 -4.140625 C 12.429688 -7.890625 10.609375 -13.582031 10.609375 -21.21875 L 10.609375 -107.875 L 29.9375 -107.875 L 29.9375 -21.984375 C 29.9375 -17.285156 31.890625 -14.9375 35.796875 -14.9375 C 36.910156 -14.9375 38.097656 -15.117188 39.359375 -15.484375 L 40.328125 -15.21875 L 42.078125 -0.34375 C 41.003906 0.207031 39.582031 0.644531 37.8125 0.96875 C 36.050781 1.300781 34.097656 1.46875 31.953125 1.46875 Z M 31.953125 1.46875 "/></g></g></g><g fill="#1f74ba" fill-opacity="1"><g transform="translate(100.647886, 154.015986)"><g><path d="M 20.71875 -86.171875 C 17.226562 -86.171875 14.390625 -87.226562 12.203125 -89.34375 C 10.023438 -91.46875 8.9375 -94.203125 8.9375 -97.546875 C 8.9375 -100.847656 10.023438 -103.554688 12.203125 -105.671875 C 14.390625 -107.796875 17.226562 -108.859375 20.71875 -108.859375 C 23.050781 -108.859375 25.125 -108.367188 26.9375 -107.390625 C 28.75 -106.410156 30.15625 -105.070312 31.15625 -103.375 C 32.15625 -101.675781 32.65625 -99.734375 32.65625 -97.546875 C 32.65625 -95.359375 32.15625 -93.40625 31.15625 -91.6875 C 30.15625 -89.96875 28.75 -88.617188 26.9375 -87.640625 C 25.125 -86.660156 23.050781 -86.171875 20.71875 -86.171875 Z M 11.09375 0 L 11.09375 -76.96875 L 30.421875 -76.96875 L 30.421875 0 Z M 11.09375 0 "/></g></g></g><g fill="#1f74ba" fill-opacity="1"><g transform="translate(142.096284, 154.015986)"><g><path d="M 11.09375 31.1875 L 11.09375 -76.96875 L 30.421875 -76.96875 L 30.421875 -66.921875 L 31.890625 -66.640625 C 34.171875 -70.546875 37.21875 -73.488281 41.03125 -75.46875 C 44.84375 -77.445312 49.304688 -78.4375 54.421875 -78.4375 C 60.609375 -78.4375 66.015625 -76.96875 70.640625 -74.03125 C 75.273438 -71.101562 78.882812 -66.648438 81.46875 -60.671875 C 84.050781 -54.691406 85.34375 -47.285156 85.34375 -38.453125 C 85.34375 -29.660156 83.976562 -22.285156 81.25 -16.328125 C 78.53125 -10.367188 74.75 -5.910156 69.90625 -2.953125 C 65.070312 -0.00390625 59.492188 1.46875 53.171875 1.46875 C 48.378906 1.46875 44.238281 0.664062 40.75 -0.9375 C 37.257812 -2.539062 34.304688 -5.039062 31.890625 -8.4375 L 30.421875 -8.171875 L 30.421875 31.1875 Z M 47.796875 -14.9375 C 53.566406 -14.9375 57.9375 -16.816406 60.90625 -20.578125 C 63.882812 -24.347656 65.375 -30.304688 65.375 -38.453125 C 65.375 -46.585938 63.882812 -52.550781 60.90625 -56.34375 C 57.9375 -60.132812 53.566406 -62.03125 47.796875 -62.03125 C 42.398438 -62.03125 38.117188 -60.078125 34.953125 -56.171875 C 31.796875 -52.265625 30.21875 -46.359375 30.21875 -38.453125 C 30.21875 -30.585938 31.796875 -24.703125 34.953125 -20.796875 C 38.117188 -16.890625 42.398438 -14.9375 47.796875 -14.9375 Z M 47.796875 -14.9375 "/></g></g></g><g fill="#1f74ba" fill-opacity="1"><g transform="translate(234.273614, 154.015986)"><g><path d="M 44.875 1.46875 C 37.425781 1.46875 30.835938 -0.078125 25.109375 -3.171875 C 19.390625 -6.265625 14.925781 -10.8125 11.71875 -16.8125 C 8.507812 -22.8125 6.90625 -30.023438 6.90625 -38.453125 C 6.90625 -46.910156 8.507812 -54.140625 11.71875 -60.140625 C 14.925781 -66.148438 19.367188 -70.703125 25.046875 -73.796875 C 30.722656 -76.890625 37.210938 -78.4375 44.515625 -78.4375 C 60.753906 -78.4375 71.148438 -72.550781 75.703125 -60.78125 L 62.453125 -51.28125 L 60.984375 -51.28125 C 59.398438 -54.914062 57.34375 -57.613281 54.8125 -59.375 C 52.28125 -61.144531 48.847656 -62.03125 44.515625 -62.03125 C 38.929688 -62.03125 34.582031 -60.097656 31.46875 -56.234375 C 28.351562 -52.378906 26.796875 -46.453125 26.796875 -38.453125 C 26.796875 -30.535156 28.375 -24.632812 31.53125 -20.75 C 34.695312 -16.875 39.144531 -14.9375 44.875 -14.9375 C 49.050781 -14.9375 52.59375 -16.0625 55.5 -18.3125 C 58.414062 -20.570312 60.5 -23.816406 61.75 -28.046875 L 63.21875 -28.1875 L 76.96875 -20.65625 C 75.007812 -14.144531 71.390625 -8.828125 66.109375 -4.703125 C 60.828125 -0.585938 53.75 1.46875 44.875 1.46875 Z M 44.875 1.46875 "/></g></g></g><g fill="#1f74ba" fill-opacity="1"><g transform="translate(313.61171, 154.015986)"><g><path d="M 30 1.46875 C 25.070312 1.46875 20.789062 0.5625 17.15625 -1.25 C 13.53125 -3.070312 10.738281 -5.738281 8.78125 -9.25 C 6.832031 -12.757812 5.859375 -16.976562 5.859375 -21.90625 C 5.859375 -26.46875 6.832031 -30.296875 8.78125 -33.390625 C 10.738281 -36.484375 13.765625 -39.015625 17.859375 -40.984375 C 21.953125 -42.960938 27.300781 -44.488281 33.90625 -45.5625 C 38.519531 -46.3125 42.019531 -47.125 44.40625 -48 C 46.800781 -48.882812 48.414062 -49.882812 49.25 -51 C 50.09375 -52.125 50.515625 -53.546875 50.515625 -55.265625 C 50.515625 -57.734375 49.65625 -59.617188 47.9375 -60.921875 C 46.21875 -62.222656 43.359375 -62.875 39.359375 -62.875 C 35.078125 -62.875 31.003906 -61.921875 27.140625 -60.015625 C 23.285156 -58.109375 19.9375 -55.59375 17.09375 -52.46875 L 15.703125 -52.46875 L 7.609375 -64.6875 C 11.515625 -69.007812 16.28125 -72.378906 21.90625 -74.796875 C 27.539062 -77.222656 33.679688 -78.4375 40.328125 -78.4375 C 50.515625 -78.4375 57.890625 -76.269531 62.453125 -71.9375 C 67.015625 -67.613281 69.296875 -61.472656 69.296875 -53.515625 L 69.296875 -20.09375 C 69.296875 -16.65625 70.804688 -14.9375 73.828125 -14.9375 C 74.984375 -14.9375 76.125 -15.144531 77.25 -15.5625 L 78.21875 -15.28125 L 79.625 -1.8125 C 78.550781 -1.113281 77.0625 -0.539062 75.15625 -0.09375 C 73.25 0.34375 71.15625 0.5625 68.875 0.5625 C 64.269531 0.5625 60.675781 -0.320312 58.09375 -2.09375 C 55.507812 -3.863281 53.660156 -6.628906 52.546875 -10.390625 L 51.078125 -10.53125 C 47.304688 -2.53125 40.28125 1.46875 30 1.46875 Z M 36.140625 -12.984375 C 40.609375 -12.984375 44.179688 -14.484375 46.859375 -17.484375 C 49.535156 -20.484375 50.875 -24.65625 50.875 -30 L 50.875 -37.8125 L 49.546875 -38.09375 C 48.378906 -37.164062 46.851562 -36.382812 44.96875 -35.75 C 43.082031 -35.125 40.375 -34.507812 36.84375 -33.90625 C 32.65625 -33.207031 29.640625 -32.007812 27.796875 -30.3125 C 25.960938 -28.613281 25.046875 -26.207031 25.046875 -23.09375 C 25.046875 -19.789062 26.019531 -17.28125 27.96875 -15.5625 C 29.925781 -13.84375 32.648438 -12.984375 36.140625 -12.984375 Z M 36.140625 -12.984375 "/></g></g></g><g fill="#1f74ba" fill-opacity="1"><g transform="translate(394.764044, 154.015986)"><g><path d="M 11.09375 0 L 11.09375 -76.96875 L 29.859375 -76.96875 L 29.859375 -65.515625 L 31.328125 -65.25 C 33.191406 -69.519531 35.632812 -72.65625 38.65625 -74.65625 C 41.675781 -76.65625 45.351562 -77.65625 49.6875 -77.65625 C 54.050781 -77.65625 57.375 -76.914062 59.65625 -75.4375 L 56.375 -58.75 L 54.921875 -58.46875 C 53.660156 -58.976562 52.445312 -59.347656 51.28125 -59.578125 C 50.125 -59.816406 48.707031 -59.9375 47.03125 -59.9375 C 41.632812 -59.9375 37.515625 -58.039062 34.671875 -54.25 C 31.835938 -50.457031 30.421875 -44.375 30.421875 -36 L 30.421875 0 Z M 11.09375 0 "/></g></g></g><g fill="#1f74ba" fill-opacity="1"><g transform="translate(456.099359, 154.015986)"><g><path d="M 53.09375 -18.359375 L 58.125 -4.046875 C 56.03125 -2.328125 53.398438 -0.976562 50.234375 0 C 47.078125 0.976562 43.5 1.46875 39.5 1.46875 C 31.164062 1.46875 24.835938 -0.796875 20.515625 -5.328125 C 16.191406 -9.867188 14.03125 -16.46875 14.03125 -25.125 L 14.03125 -61.6875 L 2.296875 -61.6875 L 2.296875 -77.03125 L 14.03125 -77.03125 L 14.03125 -92.03125 L 33.359375 -95.171875 L 33.359375 -77.03125 L 55.1875 -77.03125 L 55.1875 -61.6875 L 33.359375 -61.6875 L 33.359375 -26.515625 C 33.359375 -22.703125 34.144531 -19.921875 35.71875 -18.171875 C 37.300781 -16.429688 39.609375 -15.5625 42.640625 -15.5625 C 46.078125 -15.5625 49.078125 -16.492188 51.640625 -18.359375 Z M 53.09375 -18.359375 "/></g></g></g><g fill="#1f74ba" fill-opacity="1"><g transform="translate(511.852136, 154.015986)"><g><path d="M 48.84375 -41.03125 L 6.078125 -41.03125 L 6.078125 -58.0625 L 48.84375 -58.0625 Z M 48.84375 -41.03125 "/></g></g></g><g fill="#1f74ba" fill-opacity="1"><g transform="translate(568.093624, 154.015986)"><g><path d="M 44.875 1.46875 C 37.425781 1.46875 30.835938 -0.078125 25.109375 -3.171875 C 19.390625 -6.265625 14.925781 -10.8125 11.71875 -16.8125 C 8.507812 -22.8125 6.90625 -30.023438 6.90625 -38.453125 C 6.90625 -46.910156 8.507812 -54.140625 11.71875 -60.140625 C 14.925781 -66.148438 19.367188 -70.703125 25.046875 -73.796875 C 30.722656 -76.890625 37.210938 -78.4375 44.515625 -78.4375 C 60.753906 -78.4375 71.148438 -72.550781 75.703125 -60.78125 L 62.453125 -51.28125 L 60.984375 -51.28125 C 59.398438 -54.914062 57.34375 -57.613281 54.8125 -59.375 C 52.28125 -61.144531 48.847656 -62.03125 44.515625 -62.03125 C 38.929688 -62.03125 34.582031 -60.097656 31.46875 -56.234375 C 28.351562 -52.378906 26.796875 -46.453125 26.796875 -38.453125 C 26.796875 -30.535156 28.375 -24.632812 31.53125 -20.75 C 34.695312 -16.875 39.144531 -14.9375 44.875 -14.9375 C 49.050781 -14.9375 52.59375 -16.0625 55.5 -18.3125 C 58.414062 -20.570312 60.5 -23.816406 61.75 -28.046875 L 63.21875 -28.1875 L 76.96875 -20.65625 C 75.007812 -14.144531 71.390625 -8.828125 66.109375 -4.703125 C 60.828125 -0.585938 53.75 1.46875 44.875 1.46875 Z M 44.875 1.46875 "/></g></g></g><g fill="#1f74ba" fill-opacity="1"><g transform="translate(647.431749, 154.015986)"><g><path d="M 31.953125 1.46875 C 25.023438 1.46875 19.734375 -0.398438 16.078125 -4.140625 C 12.429688 -7.890625 10.609375 -13.582031 10.609375 -21.21875 L 10.609375 -107.875 L 29.9375 -107.875 L 29.9375 -21.984375 C 29.9375 -17.285156 31.890625 -14.9375 35.796875 -14.9375 C 36.910156 -14.9375 38.097656 -15.117188 39.359375 -15.484375 L 40.328125 -15.21875 L 42.078125 -0.34375 C 41.003906 0.207031 39.582031 0.644531 37.8125 0.96875 C 36.050781 1.300781 34.097656 1.46875 31.953125 1.46875 Z M 31.953125 1.46875 "/></g></g></g><g fill="#1f74ba" fill-opacity="1"><g transform="translate(691.671227, 154.015986)"><g><path d="M 44.734375 1.46875 C 37.191406 1.46875 30.570312 -0.078125 24.875 -3.171875 C 19.175781 -6.265625 14.753906 -10.800781 11.609375 -16.78125 C 8.472656 -22.757812 6.90625 -29.984375 6.90625 -38.453125 C 6.90625 -46.910156 8.472656 -54.140625 11.609375 -60.140625 C 14.753906 -66.148438 19.175781 -70.703125 24.875 -73.796875 C 30.570312 -76.890625 37.191406 -78.4375 44.734375 -78.4375 C 52.265625 -78.4375 58.878906 -76.890625 64.578125 -73.796875 C 70.273438 -70.703125 74.707031 -66.148438 77.875 -60.140625 C 81.039062 -54.140625 82.625 -46.910156 82.625 -38.453125 C 82.625 -29.984375 81.039062 -22.757812 77.875 -16.78125 C 74.707031 -10.800781 70.273438 -6.265625 64.578125 -3.171875 C 58.878906 -0.078125 52.265625 1.46875 44.734375 1.46875 Z M 44.734375 -14.9375 C 56.679688 -14.9375 62.65625 -22.773438 62.65625 -38.453125 C 62.65625 -46.585938 61.117188 -52.550781 58.046875 -56.34375 C 54.984375 -60.132812 50.546875 -62.03125 44.734375 -62.03125 C 32.773438 -62.03125 26.796875 -54.171875 26.796875 -38.453125 C 26.796875 -22.773438 32.773438 -14.9375 44.734375 -14.9375 Z M 44.734375 -14.9375 "/></g></g></g><g fill="#1f74ba" fill-opacity="1"><g transform="translate(781.127255, 154.015986)"><g><path d="M 11.09375 0 L 11.09375 -76.96875 L 29.65625 -76.96875 L 29.65625 -65.65625 L 31.125 -65.3125 C 35.914062 -74.0625 43.679688 -78.4375 54.421875 -78.4375 C 63.304688 -78.4375 69.832031 -76.015625 74 -71.171875 C 78.164062 -66.335938 80.25 -59.289062 80.25 -50.03125 L 80.25 0 L 60.921875 0 L 60.921875 -47.65625 C 60.921875 -52.769531 59.894531 -56.457031 57.84375 -58.71875 C 55.800781 -60.976562 52.519531 -62.109375 48 -62.109375 C 42.46875 -62.109375 38.15625 -60.316406 35.0625 -56.734375 C 31.96875 -53.148438 30.421875 -47.519531 30.421875 -39.84375 L 30.421875 0 Z M 11.09375 0 "/></g></g></g><g fill="#1f74ba" fill-opacity="1"><g transform="translate(871.28101, 154.015986)"><g><path d="M 11.09375 0 L 11.09375 -76.96875 L 29.65625 -76.96875 L 29.65625 -65.65625 L 31.125 -65.3125 C 35.914062 -74.0625 43.679688 -78.4375 54.421875 -78.4375 C 63.304688 -78.4375 69.832031 -76.015625 74 -71.171875 C 78.164062 -66.335938 80.25 -59.289062 80.25 -50.03125 L 80.25 0 L 60.921875 0 L 60.921875 -47.65625 C 60.921875 -52.769531 59.894531 -56.457031 57.84375 -58.71875 C 55.800781 -60.976562 52.519531 -62.109375 48 -62.109375 C 42.46875 -62.109375 38.15625 -60.316406 35.0625 -56.734375 C 31.96875 -53.148438 30.421875 -47.519531 30.421875 -39.84375 L 30.421875 0 Z M 11.09375 0 "/></g></g></g><g fill="#1f74ba" fill-opacity="1"><g transform="translate(961.434765, 154.015986)"><g><path d="M 76.0625 -34.125 L 26.578125 -34.125 C 27.140625 -27.425781 29.046875 -22.550781 32.296875 -19.5 C 35.554688 -16.457031 40.003906 -14.9375 45.640625 -14.9375 C 50.054688 -14.9375 53.632812 -15.757812 56.375 -17.40625 C 59.125 -19.0625 61.335938 -21.5625 63.015625 -24.90625 L 64.46875 -24.90625 L 77.3125 -16.671875 C 74.800781 -11.273438 71.007812 -6.898438 65.9375 -3.546875 C 60.863281 -0.203125 54.097656 1.46875 45.640625 1.46875 C 37.679688 1.46875 30.804688 -0.0390625 25.015625 -3.0625 C 19.222656 -6.09375 14.753906 -10.59375 11.609375 -16.5625 C 8.472656 -22.539062 6.90625 -29.835938 6.90625 -38.453125 C 6.90625 -47.191406 8.554688 -54.5625 11.859375 -60.5625 C 15.160156 -66.5625 19.625 -71.039062 25.25 -74 C 30.882812 -76.957031 37.210938 -78.4375 44.234375 -78.4375 C 55.117188 -78.4375 63.457031 -75.550781 69.25 -69.78125 C 75.039062 -64.007812 77.9375 -55.539062 77.9375 -44.375 C 77.9375 -40.332031 77.800781 -37.191406 77.53125 -34.953125 Z M 59.453125 -46.609375 C 59.265625 -52.472656 57.898438 -56.738281 55.359375 -59.40625 C 52.828125 -62.082031 49.117188 -63.421875 44.234375 -63.421875 C 34.472656 -63.421875 28.726562 -57.816406 27 -46.609375 Z M 59.453125 -46.609375 "/></g></g></g></g></g></svg>